<?xml version="1.0" encoding="UTF-8"?>
<svg xmlns="http://www.w3.org/2000/svg" xmlns:xlink="http://www.w3.org/1999/xlink" width="200px" height="157px" viewBox="0 0 199 157" version="1.1">
<defs>
<filter id="alpha" filterUnits="objectBoundingBox" x="0%" y="0%" width="100%" height="100%">
  <feColorMatrix type="matrix" in="SourceGraphic" values="0 0 0 0 1 0 0 0 0 1 0 0 0 0 1 0 0 0 1 0"/>
</filter>
<mask id="mask0">
  <g filter="url(#alpha)">
<rect x="0" y="0" width="199" height="157" style="fill:rgb(0%,0%,0%);fill-opacity:0.301961;stroke:none;"/>
  </g>
</mask>
<clipPath id="clip1">
  <rect x="0" y="0" width="199" height="157"/>
</clipPath>
<g id="surface5" clip-path="url(#clip1)">
<path style=" stroke:none;fill-rule:nonzero;fill:rgb(0%,0%,0%);fill-opacity:1;" d="M 74.65625 61.945312 C 63.375 52.40625 61.285156 35.796875 69.84375 23.75 C 69.300781 24.296875 68.777344 24.871094 68.269531 25.46875 C 58.171875 37.460938 59.6875 55.386719 71.65625 65.503906 C 83.625 75.625 101.511719 74.105469 111.609375 62.113281 C 112.113281 61.511719 112.589844 60.898438 113.035156 60.269531 C 102.625 70.75 85.933594 71.480469 74.65625 61.945312 Z M 74.65625 61.945312 "/>
</g>
</defs>
<g id="surface1">
<path style=" stroke:none;fill-rule:nonzero;fill:rgb(90.196078%,90.196078%,90.196078%);fill-opacity:1;" d="M 0.078125 0.101562 L 180.539062 0.101562 L 180.539062 115.917969 L 0.078125 115.917969 Z M 0.078125 0.101562 "/>
<path style=" stroke:none;fill-rule:nonzero;fill:rgb(100%,100%,100%);fill-opacity:1;" d="M 5.238281 14.628906 L 175.378906 14.628906 L 175.378906 109.066406 L 5.238281 109.066406 Z M 5.238281 14.628906 "/>
<path style=" stroke:none;fill-rule:nonzero;fill:rgb(19.215686%,54.901961%,28.627451%);fill-opacity:1;" d="M 0 0 L 180.460938 0 L 180.460938 7.683594 L 0 7.683594 Z M 0 0 "/>
<path style=" stroke:none;fill-rule:nonzero;fill:rgb(100%,100%,100%);fill-opacity:1;" d="M 7.117188 3.925781 C 7.117188 4.714844 6.480469 5.351562 5.699219 5.351562 C 4.914062 5.351562 4.277344 4.714844 4.277344 3.925781 C 4.277344 3.140625 4.914062 2.503906 5.699219 2.503906 C 6.480469 2.503906 7.117188 3.140625 7.117188 3.925781 Z M 7.117188 3.925781 "/>
<path style=" stroke:none;fill-rule:nonzero;fill:rgb(100%,100%,100%);fill-opacity:1;" d="M 12.511719 3.925781 C 12.511719 4.714844 11.875 5.351562 11.089844 5.351562 C 10.304688 5.351562 9.671875 4.714844 9.671875 3.925781 C 9.671875 3.140625 10.304688 2.503906 11.089844 2.503906 C 11.875 2.503906 12.511719 3.140625 12.511719 3.925781 Z M 12.511719 3.925781 "/>
<path style=" stroke:none;fill-rule:nonzero;fill:rgb(100%,100%,100%);fill-opacity:1;" d="M 17.90625 3.925781 C 17.90625 4.714844 17.269531 5.351562 16.484375 5.351562 C 15.699219 5.351562 15.0625 4.714844 15.0625 3.925781 C 15.0625 3.140625 15.699219 2.503906 16.484375 2.503906 C 17.269531 2.503906 17.90625 3.140625 17.90625 3.925781 Z M 17.90625 3.925781 "/>
<path style=" stroke:none;fill-rule:nonzero;fill:rgb(90.196078%,90.196078%,90.196078%);fill-opacity:1;" d="M 20.695312 24.425781 L 64.414062 24.425781 L 64.414062 99.265625 L 20.695312 99.265625 Z M 20.695312 24.425781 "/>
<path style=" stroke:none;fill-rule:nonzero;fill:rgb(19.215686%,54.901961%,28.627451%);fill-opacity:1;" d="M 71.960938 24.425781 L 108.394531 24.425781 L 108.394531 45.027344 L 71.960938 45.027344 Z M 71.960938 24.425781 "/>
<path style=" stroke:none;fill-rule:nonzero;fill:rgb(90.196078%,90.196078%,90.196078%);fill-opacity:1;" d="M 71.960938 50.765625 L 108.394531 50.765625 L 108.394531 72.929688 L 71.960938 72.929688 Z M 71.960938 50.765625 "/>
<path style=" stroke:none;fill-rule:nonzero;fill:rgb(90.196078%,90.196078%,90.196078%);fill-opacity:1;" d="M 71.960938 78.667969 L 108.394531 78.667969 L 108.394531 99.265625 L 71.960938 99.265625 Z M 71.960938 78.667969 "/>
<path style=" stroke:none;fill-rule:nonzero;fill:rgb(90.196078%,90.196078%,90.196078%);fill-opacity:1;" d="M 116.199219 24.425781 L 159.917969 24.425781 L 159.917969 57.042969 L 116.199219 57.042969 Z M 116.199219 24.425781 "/>
<path style=" stroke:none;fill-rule:nonzero;fill:rgb(90.196078%,90.196078%,90.196078%);fill-opacity:1;" d="M 116.199219 66.652344 L 159.917969 66.652344 L 159.917969 99.265625 L 116.199219 99.265625 Z M 116.199219 66.652344 "/>
<path style=" stroke:none;fill-rule:nonzero;fill:rgb(18.431373%,18.039216%,25.490196%);fill-opacity:1;" d="M 143.078125 59.382812 L 143.078125 52.363281 C 143.078125 47.167969 147.28125 42.953125 152.46875 42.953125 C 157.652344 42.953125 161.855469 47.167969 161.855469 52.363281 L 161.855469 59.382812 C 161.855469 60.082031 161.292969 60.648438 160.59375 60.648438 L 144.339844 60.648438 C 143.644531 60.648438 143.078125 60.082031 143.078125 59.382812 Z M 143.078125 59.382812 "/>
<path style=" stroke:none;fill-rule:nonzero;fill:rgb(100%,72.156863%,72.156863%);fill-opacity:1;" d="M 166.351562 150.761719 L 163.039062 151.679688 L 157.929688 139.316406 L 162.816406 137.960938 Z M 166.351562 150.761719 "/>
<path style=" stroke:none;fill-rule:nonzero;fill:rgb(18.431373%,18.039216%,25.490196%);fill-opacity:1;" d="M 160.410156 151.386719 L 166.800781 149.617188 L 167.910156 153.644531 L 157.503906 156.53125 C 156.890625 154.308594 158.191406 152.003906 160.410156 151.386719 Z M 160.410156 151.386719 "/>
<path style=" stroke:none;fill-rule:nonzero;fill:rgb(100%,72.156863%,72.156863%);fill-opacity:1;" d="M 131.824219 153.3125 L 128.386719 153.3125 L 126.753906 140.03125 L 131.824219 140.03125 Z M 131.824219 153.3125 "/>
<path style=" stroke:none;fill-rule:nonzero;fill:rgb(18.431373%,18.039216%,25.490196%);fill-opacity:1;" d="M 125.933594 152.328125 L 132.558594 152.328125 L 132.558594 156.511719 L 121.761719 156.511719 C 121.761719 154.203125 123.628906 152.328125 125.933594 152.328125 Z M 125.933594 152.328125 "/>
<path style=" stroke:none;fill-rule:nonzero;fill:rgb(100%,72.156863%,72.156863%);fill-opacity:1;" d="M 127.679688 79.089844 C 128.175781 79.761719 128.945312 80.175781 129.777344 80.226562 C 130.609375 80.277344 131.421875 79.953125 131.996094 79.347656 L 141.128906 83.464844 L 140.296875 78.316406 L 131.75 75.195312 C 130.644531 74.277344 129.027344 74.335938 127.988281 75.332031 C 126.953125 76.324219 126.820312 77.9375 127.679688 79.089844 Z M 127.679688 79.089844 "/>
<path style=" stroke:none;fill-rule:nonzero;fill:rgb(18.431373%,18.039216%,25.490196%);fill-opacity:1;" d="M 146.660156 110.050781 C 143.789062 110.050781 140.820312 109.621094 138.320312 108.347656 C 135.640625 107.007812 133.640625 104.609375 132.796875 101.730469 C 131.496094 97.601562 133.136719 93.546875 134.722656 89.625 C 135.707031 87.191406 136.636719 84.898438 136.875 82.632812 L 136.960938 81.832031 C 137.335938 78.222656 137.660156 75.105469 139.453125 73.9375 C 140.382812 73.332031 141.632812 73.296875 143.277344 73.832031 L 158.707031 78.855469 L 158.136719 108.199219 L 158.042969 108.230469 C 157.964844 108.257812 152.523438 110.050781 146.660156 110.050781 Z M 146.660156 110.050781 "/>
<path style=" stroke:none;fill-rule:nonzero;fill:rgb(19.215686%,54.901961%,28.627451%);fill-opacity:1;" d="M 143.007812 64.695312 C 143.007812 64.695312 150.574219 62.449219 156.460938 63.289062 C 156.460938 63.289062 153.097656 81.828125 154.21875 88.007812 C 155.339844 94.183594 134.738281 90.394531 138.945312 84.496094 L 140.34375 77.472656 C 140.34375 77.472656 137.542969 74.664062 140.066406 71.296875 Z M 143.007812 64.695312 "/>
<path style=" stroke:none;fill-rule:nonzero;fill:rgb(18.431373%,18.039216%,25.490196%);fill-opacity:1;" d="M 139.285156 109.496094 L 129.957031 107.742188 L 133.214844 82.632812 C 133.433594 81.929688 138.476562 66.019531 140.769531 65.160156 C 142.433594 64.574219 144.132812 64.097656 145.859375 63.742188 L 146.191406 63.675781 L 144.324219 66.488281 L 136.875 84.363281 Z M 139.285156 109.496094 "/>
<path style=" stroke:none;fill-rule:nonzero;fill:rgb(18.431373%,18.039216%,25.490196%);fill-opacity:1;" d="M 134.425781 150.238281 L 122.375 148.222656 L 129.136719 120.550781 L 139.199219 82.710938 L 139.300781 83.382812 C 139.308594 83.433594 140.25 88.375 154.199219 86.183594 L 154.320312 86.164062 L 154.355469 86.28125 L 171.214844 145.976562 L 157.480469 148.269531 L 144.957031 104.71875 Z M 134.425781 150.238281 "/>
<path style=" stroke:none;fill-rule:nonzero;fill:rgb(18.431373%,18.039216%,25.490196%);fill-opacity:1;" d="M 151.128906 114.191406 L 151.136719 113.980469 C 151.144531 113.746094 151.972656 90.285156 151.695312 80.847656 C 151.417969 71.382812 154.476562 63.183594 154.507812 63.101562 L 154.535156 63.035156 L 154.601562 63.015625 C 158.558594 61.882812 161.992188 65.265625 162.027344 65.296875 L 162.074219 65.347656 L 160.945312 74.664062 L 165.773438 108.546875 Z M 151.128906 114.191406 "/>
<path style=" stroke:none;fill-rule:nonzero;fill:rgb(100%,72.156863%,72.156863%);fill-opacity:1;" d="M 157.421875 53.585938 C 157.421875 57.398438 154.339844 60.484375 150.539062 60.484375 C 146.734375 60.484375 143.652344 57.398438 143.652344 53.585938 C 143.652344 49.777344 146.734375 46.6875 150.539062 46.6875 C 154.339844 46.6875 157.421875 49.777344 157.421875 53.585938 Z M 157.421875 53.585938 "/>
<path style=" stroke:none;fill-rule:nonzero;fill:rgb(18.431373%,18.039216%,25.490196%);fill-opacity:1;" d="M 140.855469 52.925781 C 140.859375 48.816406 144.183594 45.488281 148.285156 45.480469 L 149.683594 45.480469 C 153.785156 45.488281 157.109375 48.816406 157.113281 52.925781 L 157.113281 53.066406 L 154.152344 53.066406 L 153.140625 50.230469 L 152.9375 53.066406 L 151.410156 53.066406 L 150.898438 51.636719 L 150.796875 53.066406 L 140.855469 53.066406 Z M 140.855469 52.925781 "/>
<path style=" stroke:none;fill-rule:nonzero;fill:rgb(18.431373%,18.039216%,25.490196%);fill-opacity:1;" d="M 149.859375 61.4375 C 149.578125 61.054688 149.539062 60.539062 149.761719 60.117188 C 151.246094 57.285156 153.324219 52.054688 150.566406 48.828125 L 150.367188 48.597656 L 158.378906 48.597656 L 158.378906 60.652344 L 151.101562 61.941406 C 151.027344 61.953125 150.953125 61.960938 150.878906 61.960938 C 150.476562 61.960938 150.097656 61.765625 149.859375 61.4375 Z M 149.859375 61.4375 "/>
<path style=" stroke:none;fill-rule:nonzero;fill:rgb(24.705882%,23.921569%,33.72549%);fill-opacity:1;" d="M 117.601562 11.667969 C 101.972656 -1.546875 78.699219 0.0703125 65.035156 15.316406 C 51.375 30.5625 52.269531 53.921875 67.058594 68.074219 C 81.84375 82.226562 105.175781 82.046875 119.746094 67.671875 L 166.164062 106.921875 C 167.636719 108.167969 169.835938 107.984375 171.082031 106.507812 C 172.324219 105.035156 172.140625 102.832031 170.667969 101.585938 L 170.664062 101.582031 L 124.242188 62.332031 C 135.417969 46.257812 132.539062 24.300781 117.601562 11.667969 Z M 114.609375 58.550781 C 104.511719 70.542969 86.621094 72.0625 74.65625 61.945312 C 62.6875 51.824219 61.171875 33.898438 71.269531 21.90625 C 81.367188 9.914062 99.253906 8.398438 111.222656 18.515625 C 123.191406 28.636719 124.707031 46.558594 114.609375 58.550781 Z M 114.609375 58.550781 "/>
<use xlink:href="#surface5" mask="url(#mask0)"/>
<path style=" stroke:none;fill-rule:nonzero;fill:rgb(100%,72.156863%,72.156863%);fill-opacity:1;" d="M 152.746094 91.148438 C 153.558594 91.347656 154.414062 91.175781 155.085938 90.679688 C 155.757812 90.1875 156.175781 89.417969 156.230469 88.582031 L 165.882812 85.898438 L 161.957031 82.472656 L 153.394531 85.546875 C 151.957031 85.550781 150.753906 86.628906 150.589844 88.058594 C 150.421875 89.488281 151.351562 90.816406 152.746094 91.148438 Z M 152.746094 91.148438 "/>
<path style=" stroke:none;fill-rule:nonzero;fill:rgb(18.431373%,18.039216%,25.490196%);fill-opacity:1;" d="M 156.757812 89.726562 L 156.171875 84.136719 L 164.234375 79.679688 L 158.976562 73.304688 L 159.835938 66.144531 L 161.972656 65.226562 L 162.039062 65.3125 C 163.042969 66.609375 171.875 78.027344 171.875 79.441406 C 171.875 80.890625 170.1875 85.148438 167.875 86.304688 C 165.644531 87.425781 157.273438 89.59375 156.917969 89.6875 Z M 156.757812 89.726562 "/>
<path style=" stroke:none;fill-rule:nonzero;fill:rgb(80%,80%,80%);fill-opacity:1;" d="M 198.589844 156.886719 L 91.800781 156.886719 C 91.648438 156.886719 91.519531 156.761719 91.519531 156.605469 C 91.519531 156.449219 91.648438 156.324219 91.800781 156.324219 L 198.589844 156.324219 C 198.742188 156.324219 198.867188 156.449219 198.867188 156.605469 C 198.867188 156.761719 198.742188 156.886719 198.589844 156.886719 Z M 198.589844 156.886719 "/>
</g>
</svg>
