<?xml version="1.0" encoding="UTF-8"?>
<svg xmlns="http://www.w3.org/2000/svg" xmlns:xlink="http://www.w3.org/1999/xlink" width="200px" height="126px" viewBox="0 0 199 126" version="1.1">
<g id="surface1">
<path style=" stroke:none;fill-rule:nonzero;fill:rgb(18.431373%,18.039216%,25.490196%);fill-opacity:1;" d="M 75.382812 19.835938 C 75.101562 20.199219 74.621094 20.339844 74.1875 20.1875 C 74.125 20.167969 74.0625 20.144531 74 20.117188 C 74.070312 19.378906 74.035156 18.628906 73.898438 17.898438 C 73.84375 18.527344 73.691406 19.144531 73.445312 19.722656 C 73.242188 19.519531 73.078125 19.285156 72.957031 19.027344 C 72.730469 18.492188 72.582031 17.925781 72.511719 17.347656 C 72.175781 15.382812 71.847656 13.335938 72.394531 11.410156 C 73.191406 8.605469 75.707031 6.585938 76.757812 3.859375 L 77.277344 3.394531 C 78.160156 4.90625 78.199219 6.785156 77.839844 8.496094 C 77.480469 10.214844 76.757812 11.824219 76.183594 13.480469 C 75.609375 15.136719 75.183594 16.898438 75.449219 18.632812 C 75.507812 19.039062 75.601562 19.488281 75.382812 19.835938 Z M 75.382812 19.835938 "/>
<path style=" stroke:none;fill-rule:nonzero;fill:rgb(100%,71.372549%,71.372549%);fill-opacity:1;" d="M 63.875 43.601562 L 60.503906 59.054688 L 75.238281 63.859375 L 73.074219 43.601562 Z M 63.875 43.601562 "/>
<path style=" stroke:none;fill-rule:nonzero;fill:rgb(90.196078%,90.196078%,90.196078%);fill-opacity:1;" d="M 167.875 125.609375 L 174.554688 125.609375 L 174.554688 94.953125 C 174.535156 78.476562 161.203125 65.128906 144.75 65.109375 L 82.683594 65.109375 C 66.230469 65.128906 52.898438 78.476562 52.878906 94.953125 L 52.878906 125.609375 L 59.558594 125.609375 L 59.558594 104.664062 C 59.578125 88.039062 73.035156 74.5625 89.640625 74.542969 L 137.792969 74.542969 C 154.398438 74.5625 167.855469 88.039062 167.875 104.664062 Z M 167.875 125.609375 "/>
<path style=" stroke:none;fill-rule:nonzero;fill:rgb(94.901961%,94.901961%,94.901961%);fill-opacity:1;" d="M 86.722656 109.570312 L 79.605469 107.414062 C 79.140625 105.507812 78.90625 103.554688 78.910156 101.597656 C 78.914062 100.691406 79.445312 99.875 80.261719 99.496094 C 81.082031 99.117188 82.046875 99.25 82.738281 99.832031 C 86.554688 103.109375 92.144531 104.859375 95.753906 108.597656 C 98.78125 111.777344 100.195312 116.164062 99.605469 120.515625 L 101.160156 125.5625 C 94.105469 125.050781 87.625 121.472656 83.429688 115.769531 C 82.28125 114.175781 81.339844 112.445312 80.625 110.617188 C 83.644531 110.273438 86.722656 109.570312 86.722656 109.570312 Z M 86.722656 109.570312 "/>
<path style=" stroke:none;fill-rule:nonzero;fill:rgb(94.901961%,94.901961%,94.901961%);fill-opacity:1;" d="M 105.269531 117.835938 L 108.902344 116.734375 C 108.90625 116.714844 108.910156 116.695312 108.914062 116.675781 C 109.121094 115.765625 108.765625 114.824219 108.015625 114.273438 C 107.261719 113.726562 106.257812 113.679688 105.457031 114.152344 C 103.808594 115.132812 101.976562 115.976562 100.664062 117.335938 C 99.121094 118.960938 98.398438 121.195312 98.699219 123.417969 L 97.90625 125.988281 C 101.503906 125.730469 104.808594 123.90625 106.949219 120.996094 C 107.535156 120.183594 108.015625 119.300781 108.378906 118.367188 C 106.839844 118.191406 105.269531 117.835938 105.269531 117.835938 Z M 105.269531 117.835938 "/>
<path style=" stroke:none;fill-rule:nonzero;fill:rgb(24.705882%,23.921569%,33.72549%);fill-opacity:1;" d="M 134.65625 42.5 L 120.519531 42.5 C 120.105469 42.5 119.765625 42.835938 119.765625 43.253906 L 119.765625 65.617188 L 135.414062 65.617188 L 135.414062 43.253906 C 135.414062 43.054688 135.332031 42.863281 135.191406 42.71875 C 135.050781 42.578125 134.859375 42.5 134.65625 42.5 Z M 127.636719 55.203125 C 126.714844 55.199219 125.972656 54.453125 125.96875 53.53125 L 125.96875 50.953125 C 125.96875 50.03125 126.714844 49.285156 127.636719 49.285156 C 128.558594 49.285156 129.304688 50.03125 129.304688 50.953125 L 129.304688 53.53125 C 129.300781 54.453125 128.554688 55.199219 127.636719 55.203125 Z M 127.636719 55.203125 "/>
<path style=" stroke:none;fill-rule:nonzero;fill:rgb(24.705882%,23.921569%,33.72549%);fill-opacity:1;" d="M 158.066406 7.601562 L 97.636719 7.601562 C 96.554688 7.601562 95.679688 8.480469 95.679688 9.5625 L 95.679688 50.394531 C 95.679688 51.476562 96.554688 52.355469 97.636719 52.355469 L 158.066406 52.355469 C 159.148438 52.355469 160.023438 51.476562 160.023438 50.394531 L 160.023438 9.5625 C 160.023438 8.480469 159.148438 7.601562 158.066406 7.601562 Z M 158.066406 7.601562 "/>
<path style=" stroke:none;fill-rule:nonzero;fill:rgb(100%,100%,100%);fill-opacity:1;" d="M 157.5625 9.015625 L 98.140625 9.015625 C 97.5625 9.019531 97.09375 9.488281 97.09375 10.066406 L 97.09375 49.886719 C 97.097656 50.46875 97.5625 50.9375 98.140625 50.9375 L 157.5625 50.9375 C 158.140625 50.9375 158.609375 50.46875 158.609375 49.886719 L 158.609375 10.066406 C 158.609375 9.488281 158.140625 9.019531 157.5625 9.015625 Z M 157.5625 9.015625 "/>
<path style=" stroke:none;fill-rule:nonzero;fill:rgb(24.705882%,23.921569%,33.72549%);fill-opacity:1;" d="M 119.71875 64.902344 L 119.71875 67.058594 C 119.71875 67.292969 119.90625 67.480469 120.140625 67.480469 L 135.039062 67.480469 C 135.273438 67.480469 135.460938 67.292969 135.460938 67.058594 L 135.460938 64.902344 Z M 119.71875 64.902344 "/>
<path style=" stroke:none;fill-rule:nonzero;fill:rgb(24.705882%,23.921569%,33.72549%);fill-opacity:1;" d="M 145.988281 68.230469 L 110.636719 68.230469 C 110.441406 68.230469 110.253906 68.144531 110.132812 67.992188 C 110.007812 67.839844 109.960938 67.636719 110 67.445312 L 110.546875 64.835938 C 110.613281 64.535156 110.878906 64.320312 111.183594 64.320312 L 145.441406 64.320312 C 145.746094 64.320312 146.011719 64.535156 146.074219 64.835938 L 146.625 67.445312 C 146.664062 67.636719 146.617188 67.839844 146.492188 67.992188 C 146.371094 68.144531 146.183594 68.230469 145.988281 68.230469 Z M 145.988281 68.230469 "/>
<path style=" stroke:none;fill-rule:nonzero;fill:rgb(90.196078%,90.196078%,90.196078%);fill-opacity:1;" d="M 111.570312 64.789062 L 112.390625 64.789062 C 112.464844 64.789062 112.523438 64.851562 112.523438 64.925781 L 112.523438 65.308594 C 112.523438 65.382812 112.464844 65.445312 112.390625 65.445312 L 111.570312 65.445312 C 111.496094 65.445312 111.4375 65.382812 111.4375 65.308594 L 111.4375 64.925781 C 111.4375 64.851562 111.496094 64.789062 111.570312 64.789062 Z M 111.570312 64.789062 "/>
<path style=" stroke:none;fill-rule:nonzero;fill:rgb(90.196078%,90.196078%,90.196078%);fill-opacity:1;" d="M 113.75 64.789062 L 114.566406 64.789062 C 114.640625 64.789062 114.703125 64.851562 114.703125 64.925781 L 114.703125 65.308594 C 114.703125 65.382812 114.640625 65.445312 114.566406 65.445312 L 113.75 65.445312 C 113.675781 65.445312 113.613281 65.382812 113.613281 65.308594 L 113.613281 64.925781 C 113.613281 64.851562 113.675781 64.789062 113.75 64.789062 Z M 113.75 64.789062 "/>
<path style=" stroke:none;fill-rule:nonzero;fill:rgb(90.196078%,90.196078%,90.196078%);fill-opacity:1;" d="M 115.925781 64.789062 L 116.746094 64.789062 C 116.820312 64.789062 116.878906 64.851562 116.878906 64.925781 L 116.878906 65.308594 C 116.878906 65.382812 116.820312 65.445312 116.746094 65.445312 L 115.925781 65.445312 C 115.851562 65.445312 115.792969 65.382812 115.792969 65.308594 L 115.792969 64.925781 C 115.792969 64.851562 115.851562 64.789062 115.925781 64.789062 Z M 115.925781 64.789062 "/>
<path style=" stroke:none;fill-rule:nonzero;fill:rgb(90.196078%,90.196078%,90.196078%);fill-opacity:1;" d="M 118.105469 64.789062 L 118.921875 64.789062 C 118.996094 64.789062 119.058594 64.851562 119.058594 64.925781 L 119.058594 65.308594 C 119.058594 65.382812 118.996094 65.445312 118.921875 65.445312 L 118.105469 65.445312 C 118.03125 65.445312 117.96875 65.382812 117.96875 65.308594 L 117.96875 64.925781 C 117.96875 64.851562 118.03125 64.789062 118.105469 64.789062 Z M 118.105469 64.789062 "/>
<path style=" stroke:none;fill-rule:nonzero;fill:rgb(90.196078%,90.196078%,90.196078%);fill-opacity:1;" d="M 120.28125 64.789062 L 121.101562 64.789062 C 121.175781 64.789062 121.234375 64.851562 121.234375 64.925781 L 121.234375 65.308594 C 121.234375 65.382812 121.175781 65.445312 121.101562 65.445312 L 120.28125 65.445312 C 120.207031 65.445312 120.144531 65.382812 120.144531 65.308594 L 120.144531 64.925781 C 120.144531 64.851562 120.207031 64.789062 120.28125 64.789062 Z M 120.28125 64.789062 "/>
<path style=" stroke:none;fill-rule:nonzero;fill:rgb(90.196078%,90.196078%,90.196078%);fill-opacity:1;" d="M 122.460938 64.789062 L 123.277344 64.789062 C 123.351562 64.789062 123.414062 64.851562 123.414062 64.925781 L 123.414062 65.308594 C 123.414062 65.382812 123.351562 65.445312 123.277344 65.445312 L 122.460938 65.445312 C 122.382812 65.445312 122.324219 65.382812 122.324219 65.308594 L 122.324219 64.925781 C 122.324219 64.851562 122.382812 64.789062 122.460938 64.789062 Z M 122.460938 64.789062 "/>
<path style=" stroke:none;fill-rule:nonzero;fill:rgb(90.196078%,90.196078%,90.196078%);fill-opacity:1;" d="M 124.636719 64.789062 L 125.453125 64.789062 C 125.53125 64.789062 125.589844 64.851562 125.589844 64.925781 L 125.589844 65.308594 C 125.589844 65.382812 125.53125 65.445312 125.453125 65.445312 L 124.636719 65.445312 C 124.5625 65.445312 124.5 65.382812 124.5 65.308594 L 124.5 64.925781 C 124.5 64.851562 124.5625 64.789062 124.636719 64.789062 Z M 124.636719 64.789062 "/>
<path style=" stroke:none;fill-rule:nonzero;fill:rgb(90.196078%,90.196078%,90.196078%);fill-opacity:1;" d="M 126.8125 64.789062 L 127.632812 64.789062 C 127.707031 64.789062 127.769531 64.851562 127.769531 64.925781 L 127.769531 65.308594 C 127.769531 65.382812 127.707031 65.445312 127.632812 65.445312 L 126.8125 65.445312 C 126.738281 65.445312 126.679688 65.382812 126.679688 65.308594 L 126.679688 64.925781 C 126.679688 64.851562 126.738281 64.789062 126.8125 64.789062 Z M 126.8125 64.789062 "/>
<path style=" stroke:none;fill-rule:nonzero;fill:rgb(90.196078%,90.196078%,90.196078%);fill-opacity:1;" d="M 128.992188 64.789062 L 129.808594 64.789062 C 129.886719 64.789062 129.945312 64.851562 129.945312 64.925781 L 129.945312 65.308594 C 129.945312 65.382812 129.886719 65.445312 129.808594 65.445312 L 128.992188 65.445312 C 128.917969 65.445312 128.855469 65.382812 128.855469 65.308594 L 128.855469 64.925781 C 128.855469 64.851562 128.917969 64.789062 128.992188 64.789062 Z M 128.992188 64.789062 "/>
<path style=" stroke:none;fill-rule:nonzero;fill:rgb(90.196078%,90.196078%,90.196078%);fill-opacity:1;" d="M 131.167969 64.789062 L 131.988281 64.789062 C 132.0625 64.789062 132.121094 64.851562 132.121094 64.925781 L 132.121094 65.308594 C 132.121094 65.382812 132.0625 65.445312 131.988281 65.445312 L 131.167969 65.445312 C 131.09375 65.445312 131.035156 65.382812 131.035156 65.308594 L 131.035156 64.925781 C 131.035156 64.851562 131.09375 64.789062 131.167969 64.789062 Z M 131.167969 64.789062 "/>
<path style=" stroke:none;fill-rule:nonzero;fill:rgb(90.196078%,90.196078%,90.196078%);fill-opacity:1;" d="M 133.347656 64.789062 L 134.164062 64.789062 C 134.238281 64.789062 134.300781 64.851562 134.300781 64.925781 L 134.300781 65.308594 C 134.300781 65.382812 134.238281 65.445312 134.164062 65.445312 L 133.347656 65.445312 C 133.273438 65.445312 133.210938 65.382812 133.210938 65.308594 L 133.210938 64.925781 C 133.210938 64.851562 133.273438 64.789062 133.347656 64.789062 Z M 133.347656 64.789062 "/>
<path style=" stroke:none;fill-rule:nonzero;fill:rgb(90.196078%,90.196078%,90.196078%);fill-opacity:1;" d="M 135.523438 64.789062 L 136.34375 64.789062 C 136.417969 64.789062 136.476562 64.851562 136.476562 64.925781 L 136.476562 65.308594 C 136.476562 65.382812 136.417969 65.445312 136.34375 65.445312 L 135.523438 65.445312 C 135.449219 65.445312 135.390625 65.382812 135.390625 65.308594 L 135.390625 64.925781 C 135.390625 64.851562 135.449219 64.789062 135.523438 64.789062 Z M 135.523438 64.789062 "/>
<path style=" stroke:none;fill-rule:nonzero;fill:rgb(90.196078%,90.196078%,90.196078%);fill-opacity:1;" d="M 137.703125 64.789062 L 138.519531 64.789062 C 138.59375 64.789062 138.65625 64.851562 138.65625 64.925781 L 138.65625 65.308594 C 138.65625 65.382812 138.59375 65.445312 138.519531 65.445312 L 137.703125 65.445312 C 137.628906 65.445312 137.566406 65.382812 137.566406 65.308594 L 137.566406 64.925781 C 137.566406 64.851562 137.628906 64.789062 137.703125 64.789062 Z M 137.703125 64.789062 "/>
<path style=" stroke:none;fill-rule:nonzero;fill:rgb(90.196078%,90.196078%,90.196078%);fill-opacity:1;" d="M 139.878906 64.789062 L 140.699219 64.789062 C 140.773438 64.789062 140.832031 64.851562 140.832031 64.925781 L 140.832031 65.308594 C 140.832031 65.382812 140.773438 65.445312 140.699219 65.445312 L 139.878906 65.445312 C 139.804688 65.445312 139.746094 65.382812 139.746094 65.308594 L 139.746094 64.925781 C 139.746094 64.851562 139.804688 64.789062 139.878906 64.789062 Z M 139.878906 64.789062 "/>
<path style=" stroke:none;fill-rule:nonzero;fill:rgb(90.196078%,90.196078%,90.196078%);fill-opacity:1;" d="M 142.058594 64.789062 L 142.875 64.789062 C 142.949219 64.789062 143.011719 64.851562 143.011719 64.925781 L 143.011719 65.308594 C 143.011719 65.382812 142.949219 65.445312 142.875 65.445312 L 142.058594 65.445312 C 141.984375 65.445312 141.921875 65.382812 141.921875 65.308594 L 141.921875 64.925781 C 141.921875 64.851562 141.984375 64.789062 142.058594 64.789062 Z M 142.058594 64.789062 "/>
<path style=" stroke:none;fill-rule:nonzero;fill:rgb(90.196078%,90.196078%,90.196078%);fill-opacity:1;" d="M 144.234375 64.789062 L 145.054688 64.789062 C 145.128906 64.789062 145.1875 64.851562 145.1875 64.925781 L 145.1875 65.308594 C 145.1875 65.382812 145.128906 65.445312 145.054688 65.445312 L 144.234375 65.445312 C 144.160156 65.445312 144.101562 65.382812 144.101562 65.308594 L 144.101562 64.925781 C 144.101562 64.851562 144.160156 64.789062 144.234375 64.789062 Z M 144.234375 64.789062 "/>
<path style=" stroke:none;fill-rule:nonzero;fill:rgb(90.196078%,90.196078%,90.196078%);fill-opacity:1;" d="M 111.546875 65.878906 L 112.363281 65.878906 C 112.4375 65.878906 112.5 65.941406 112.5 66.015625 L 112.5 66.398438 C 112.5 66.472656 112.4375 66.535156 112.363281 66.535156 L 111.546875 66.535156 C 111.472656 66.535156 111.410156 66.472656 111.410156 66.398438 L 111.410156 66.015625 C 111.410156 65.941406 111.472656 65.878906 111.546875 65.878906 Z M 111.546875 65.878906 "/>
<path style=" stroke:none;fill-rule:nonzero;fill:rgb(90.196078%,90.196078%,90.196078%);fill-opacity:1;" d="M 113.722656 65.878906 L 114.542969 65.878906 C 114.617188 65.878906 114.675781 65.941406 114.675781 66.015625 L 114.675781 66.398438 C 114.675781 66.472656 114.617188 66.535156 114.542969 66.535156 L 113.722656 66.535156 C 113.648438 66.535156 113.589844 66.472656 113.589844 66.398438 L 113.589844 66.015625 C 113.589844 65.941406 113.648438 65.878906 113.722656 65.878906 Z M 113.722656 65.878906 "/>
<path style=" stroke:none;fill-rule:nonzero;fill:rgb(90.196078%,90.196078%,90.196078%);fill-opacity:1;" d="M 115.902344 65.878906 L 116.71875 65.878906 C 116.792969 65.878906 116.855469 65.941406 116.855469 66.015625 L 116.855469 66.398438 C 116.855469 66.472656 116.792969 66.535156 116.71875 66.535156 L 115.902344 66.535156 C 115.824219 66.535156 115.765625 66.472656 115.765625 66.398438 L 115.765625 66.015625 C 115.765625 65.941406 115.824219 65.878906 115.902344 65.878906 Z M 115.902344 65.878906 "/>
<path style=" stroke:none;fill-rule:nonzero;fill:rgb(90.196078%,90.196078%,90.196078%);fill-opacity:1;" d="M 118.078125 65.878906 L 118.898438 65.878906 C 118.972656 65.878906 119.03125 65.941406 119.03125 66.015625 L 119.03125 66.398438 C 119.03125 66.472656 118.972656 66.535156 118.898438 66.535156 L 118.078125 66.535156 C 118.003906 66.535156 117.941406 66.472656 117.941406 66.398438 L 117.941406 66.015625 C 117.941406 65.941406 118.003906 65.878906 118.078125 65.878906 Z M 118.078125 65.878906 "/>
<path style=" stroke:none;fill-rule:nonzero;fill:rgb(90.196078%,90.196078%,90.196078%);fill-opacity:1;" d="M 120.257812 65.878906 L 121.074219 65.878906 C 121.148438 65.878906 121.210938 65.941406 121.210938 66.015625 L 121.210938 66.398438 C 121.210938 66.472656 121.148438 66.535156 121.074219 66.535156 L 120.257812 66.535156 C 120.179688 66.535156 120.121094 66.472656 120.121094 66.398438 L 120.121094 66.015625 C 120.121094 65.941406 120.179688 65.878906 120.257812 65.878906 Z M 120.257812 65.878906 "/>
<path style=" stroke:none;fill-rule:nonzero;fill:rgb(90.196078%,90.196078%,90.196078%);fill-opacity:1;" d="M 122.433594 65.878906 L 123.25 65.878906 C 123.328125 65.878906 123.386719 65.941406 123.386719 66.015625 L 123.386719 66.398438 C 123.386719 66.472656 123.328125 66.535156 123.25 66.535156 L 122.433594 66.535156 C 122.359375 66.535156 122.296875 66.472656 122.296875 66.398438 L 122.296875 66.015625 C 122.296875 65.941406 122.359375 65.878906 122.433594 65.878906 Z M 122.433594 65.878906 "/>
<path style=" stroke:none;fill-rule:nonzero;fill:rgb(90.196078%,90.196078%,90.196078%);fill-opacity:1;" d="M 124.609375 65.878906 L 125.429688 65.878906 C 125.503906 65.878906 125.566406 65.941406 125.566406 66.015625 L 125.566406 66.398438 C 125.566406 66.472656 125.503906 66.535156 125.429688 66.535156 L 124.609375 66.535156 C 124.535156 66.535156 124.476562 66.472656 124.476562 66.398438 L 124.476562 66.015625 C 124.476562 65.941406 124.535156 65.878906 124.609375 65.878906 Z M 124.609375 65.878906 "/>
<path style=" stroke:none;fill-rule:nonzero;fill:rgb(90.196078%,90.196078%,90.196078%);fill-opacity:1;" d="M 126.789062 65.878906 L 127.605469 65.878906 C 127.679688 65.878906 127.742188 65.941406 127.742188 66.015625 L 127.742188 66.398438 C 127.742188 66.472656 127.679688 66.535156 127.605469 66.535156 L 126.789062 66.535156 C 126.714844 66.535156 126.652344 66.472656 126.652344 66.398438 L 126.652344 66.015625 C 126.652344 65.941406 126.714844 65.878906 126.789062 65.878906 Z M 126.789062 65.878906 "/>
<path style=" stroke:none;fill-rule:nonzero;fill:rgb(90.196078%,90.196078%,90.196078%);fill-opacity:1;" d="M 128.964844 65.878906 L 129.785156 65.878906 C 129.859375 65.878906 129.917969 65.941406 129.917969 66.015625 L 129.917969 66.398438 C 129.917969 66.472656 129.859375 66.535156 129.785156 66.535156 L 128.964844 66.535156 C 128.890625 66.535156 128.832031 66.472656 128.832031 66.398438 L 128.832031 66.015625 C 128.832031 65.941406 128.890625 65.878906 128.964844 65.878906 Z M 128.964844 65.878906 "/>
<path style=" stroke:none;fill-rule:nonzero;fill:rgb(90.196078%,90.196078%,90.196078%);fill-opacity:1;" d="M 131.144531 65.878906 L 131.960938 65.878906 C 132.035156 65.878906 132.097656 65.941406 132.097656 66.015625 L 132.097656 66.398438 C 132.097656 66.472656 132.035156 66.535156 131.960938 66.535156 L 131.144531 66.535156 C 131.070312 66.535156 131.007812 66.472656 131.007812 66.398438 L 131.007812 66.015625 C 131.007812 65.941406 131.070312 65.878906 131.144531 65.878906 Z M 131.144531 65.878906 "/>
<path style=" stroke:none;fill-rule:nonzero;fill:rgb(90.196078%,90.196078%,90.196078%);fill-opacity:1;" d="M 133.320312 65.878906 L 134.140625 65.878906 C 134.214844 65.878906 134.273438 65.941406 134.273438 66.015625 L 134.273438 66.398438 C 134.273438 66.472656 134.214844 66.535156 134.140625 66.535156 L 133.320312 66.535156 C 133.246094 66.535156 133.1875 66.472656 133.1875 66.398438 L 133.1875 66.015625 C 133.1875 65.941406 133.246094 65.878906 133.320312 65.878906 Z M 133.320312 65.878906 "/>
<path style=" stroke:none;fill-rule:nonzero;fill:rgb(90.196078%,90.196078%,90.196078%);fill-opacity:1;" d="M 135.5 65.878906 L 136.316406 65.878906 C 136.390625 65.878906 136.453125 65.941406 136.453125 66.015625 L 136.453125 66.398438 C 136.453125 66.472656 136.390625 66.535156 136.316406 66.535156 L 135.5 66.535156 C 135.425781 66.535156 135.363281 66.472656 135.363281 66.398438 L 135.363281 66.015625 C 135.363281 65.941406 135.425781 65.878906 135.5 65.878906 Z M 135.5 65.878906 "/>
<path style=" stroke:none;fill-rule:nonzero;fill:rgb(90.196078%,90.196078%,90.196078%);fill-opacity:1;" d="M 137.675781 65.878906 L 138.496094 65.878906 C 138.570312 65.878906 138.628906 65.941406 138.628906 66.015625 L 138.628906 66.398438 C 138.628906 66.472656 138.570312 66.535156 138.496094 66.535156 L 137.675781 66.535156 C 137.601562 66.535156 137.542969 66.472656 137.542969 66.398438 L 137.542969 66.015625 C 137.542969 65.941406 137.601562 65.878906 137.675781 65.878906 Z M 137.675781 65.878906 "/>
<path style=" stroke:none;fill-rule:nonzero;fill:rgb(90.196078%,90.196078%,90.196078%);fill-opacity:1;" d="M 139.855469 65.878906 L 140.671875 65.878906 C 140.746094 65.878906 140.808594 65.941406 140.808594 66.015625 L 140.808594 66.398438 C 140.808594 66.472656 140.746094 66.535156 140.671875 66.535156 L 139.855469 66.535156 C 139.78125 66.535156 139.71875 66.472656 139.71875 66.398438 L 139.71875 66.015625 C 139.71875 65.941406 139.78125 65.878906 139.855469 65.878906 Z M 139.855469 65.878906 "/>
<path style=" stroke:none;fill-rule:nonzero;fill:rgb(90.196078%,90.196078%,90.196078%);fill-opacity:1;" d="M 142.03125 65.878906 L 142.851562 65.878906 C 142.925781 65.878906 142.984375 65.941406 142.984375 66.015625 L 142.984375 66.398438 C 142.984375 66.472656 142.925781 66.535156 142.851562 66.535156 L 142.03125 66.535156 C 141.957031 66.535156 141.894531 66.472656 141.894531 66.398438 L 141.894531 66.015625 C 141.894531 65.941406 141.957031 65.878906 142.03125 65.878906 Z M 142.03125 65.878906 "/>
<path style=" stroke:none;fill-rule:nonzero;fill:rgb(90.196078%,90.196078%,90.196078%);fill-opacity:1;" d="M 144.210938 65.878906 L 145.027344 65.878906 C 145.101562 65.878906 145.164062 65.941406 145.164062 66.015625 L 145.164062 66.398438 C 145.164062 66.472656 145.101562 66.535156 145.027344 66.535156 L 144.210938 66.535156 C 144.132812 66.535156 144.074219 66.472656 144.074219 66.398438 L 144.074219 66.015625 C 144.074219 65.941406 144.132812 65.878906 144.210938 65.878906 Z M 144.210938 65.878906 "/>
<path style=" stroke:none;fill-rule:nonzero;fill:rgb(90.196078%,90.196078%,90.196078%);fill-opacity:1;" d="M 121.996094 67.1875 L 130.4375 67.1875 C 130.511719 67.1875 130.574219 67.25 130.574219 67.324219 L 130.574219 67.707031 C 130.574219 67.78125 130.511719 67.84375 130.4375 67.84375 L 121.996094 67.84375 C 121.921875 67.84375 121.863281 67.78125 121.863281 67.707031 L 121.863281 67.324219 C 121.863281 67.25 121.921875 67.1875 121.996094 67.1875 Z M 121.996094 67.1875 "/>
<path style=" stroke:none;fill-rule:nonzero;fill:rgb(94.901961%,94.901961%,94.901961%);fill-opacity:1;" d="M 148.703125 19.011719 L 148.703125 39.972656 C 148.703125 42.894531 146.335938 45.265625 143.417969 45.265625 L 117.21875 45.265625 C 115.113281 45.265625 113.207031 44.011719 112.367188 42.074219 C 112.230469 41.761719 112.125 41.4375 112.054688 41.101562 C 112.609375 41.316406 113.203125 41.429688 113.800781 41.425781 L 139.996094 41.425781 C 142.6875 41.421875 144.863281 39.242188 144.867188 36.546875 L 144.867188 15.589844 C 144.871094 14.992188 144.761719 14.398438 144.542969 13.839844 C 144.878906 13.910156 145.203125 14.015625 145.515625 14.152344 C 147.453125 14.992188 148.703125 16.902344 148.703125 19.011719 Z M 148.703125 19.011719 "/>
<path style=" stroke:none;fill-rule:nonzero;fill:rgb(100%,71.372549%,71.372549%);fill-opacity:1;" d="M 50.96875 102.402344 L 48.371094 104.011719 L 40.714844 94.589844 L 44.550781 92.214844 Z M 50.96875 102.402344 "/>
<path style=" stroke:none;fill-rule:nonzero;fill:rgb(18.431373%,18.039216%,25.490196%);fill-opacity:1;" d="M 53.210938 105.765625 L 51.121094 106.703125 L 49.867188 104.894531 L 49.792969 107.296875 L 44.25 109.773438 C 43.703125 110.019531 43.0625 109.878906 42.667969 109.429688 C 42.273438 108.980469 42.21875 108.328125 42.527344 107.816406 L 45.589844 102.773438 L 44.699219 100.777344 L 49.480469 98.972656 Z M 53.210938 105.765625 "/>
<path style=" stroke:none;fill-rule:nonzero;fill:rgb(18.431373%,18.039216%,25.490196%);fill-opacity:1;" d="M 43.691406 100.589844 L 48.078125 96.332031 C 44.816406 88.273438 44.558594 83.28125 40.039062 73.535156 C 50.761719 75.734375 58.429688 75.601562 67.296875 73.628906 C 70.300781 72.972656 78.046875 66.980469 77.410156 63.910156 C 77.378906 63.765625 77.34375 63.625 77.304688 63.484375 C 76.351562 60.234375 77.023438 55.253906 74.960938 51.648438 C 71.152344 50.210938 65.359375 55.070312 60.828125 58.03125 C 58.644531 59.460938 60.242188 61.40625 58.609375 61.917969 L 52.355469 63.949219 L 37.007812 61.46875 C 35.511719 61.242188 33.984375 61.621094 32.765625 62.527344 C 31.550781 63.429688 30.746094 64.785156 30.527344 66.285156 C 30.503906 66.453125 30.484375 66.621094 30.472656 66.789062 C 31.179688 70.703125 31.914062 74.515625 32.707031 78.132812 C 32.964844 79.300781 32.53125 81.539062 33.492188 81.574219 C 34.457031 81.605469 34.066406 83.921875 34.367188 85.054688 C 36.210938 92.023438 37.378906 95.398438 43.691406 100.589844 Z M 43.691406 100.589844 "/>
<path style=" stroke:none;fill-rule:nonzero;fill:rgb(100%,71.372549%,71.372549%);fill-opacity:1;" d="M 35.289062 119.269531 L 32.582031 117.855469 L 36.867188 106.492188 L 40.863281 108.582031 Z M 35.289062 119.269531 "/>
<path style=" stroke:none;fill-rule:nonzero;fill:rgb(18.431373%,18.039216%,25.490196%);fill-opacity:1;" d="M 34.839844 110.785156 L 39.179688 113.777344 C 44.5 106.074219 47.953125 95.78125 50.527344 84.261719 C 60.542969 79.886719 69.308594 74.878906 75.414062 68.164062 C 77.5 65.824219 77.351562 62.25 75.078125 60.089844 C 74.972656 59.992188 74.863281 59.894531 74.746094 59.800781 C 72.101562 57.691406 66.226562 58.90625 62.472656 57.144531 L 55.761719 66.441406 L 56.535156 68.605469 L 54.199219 69.742188 L 52.230469 70.703125 L 49.976562 71.804688 L 42.582031 75.40625 C 41.226562 76.085938 40.199219 77.277344 39.726562 78.714844 C 39.253906 80.15625 39.375 81.726562 40.0625 83.074219 C 40.136719 83.226562 40.21875 83.375 40.304688 83.519531 L 37.558594 97.21875 C 37.558594 97.21875 38.316406 99.605469 37.125 99.378906 C 35.9375 99.15625 36.585938 102.078125 36.585938 102.078125 Z M 34.839844 110.785156 "/>
<path style=" stroke:none;fill-rule:nonzero;fill:rgb(18.431373%,18.039216%,25.490196%);fill-opacity:1;" d="M 33.652344 125.53125 L 31.621094 124.46875 L 32.257812 122.363281 L 30.332031 123.796875 L 24.949219 120.980469 C 24.421875 120.707031 24.132812 120.117188 24.238281 119.527344 C 24.34375 118.9375 24.820312 118.488281 25.414062 118.414062 L 31.261719 117.6875 L 32.269531 115.75 L 36.652344 118.382812 Z M 33.652344 125.53125 "/>
<path style=" stroke:none;fill-rule:nonzero;fill:rgb(100%,71.372549%,71.372549%);fill-opacity:1;" d="M 92.816406 65.96875 L 89.652344 58.308594 L 87.15625 59.695312 L 88.664062 67.492188 C 88.246094 68.863281 88.9375 70.328125 90.261719 70.871094 C 91.589844 71.414062 93.109375 70.859375 93.773438 69.585938 C 94.433594 68.316406 94.019531 66.75 92.816406 65.96875 Z M 92.816406 65.96875 "/>
<path style=" stroke:none;fill-rule:nonzero;fill:rgb(100%,71.372549%,71.372549%);fill-opacity:1;" d="M 39.691406 5.386719 L 44.507812 12.128906 L 46.625 10.210938 L 43.394531 2.964844 C 43.492188 1.53125 42.484375 0.261719 41.070312 0.0351562 C 39.65625 -0.195312 38.300781 0.691406 37.945312 2.078125 C 37.585938 3.46875 38.34375 4.902344 39.691406 5.386719 Z M 39.691406 5.386719 "/>
<path style=" stroke:none;fill-rule:nonzero;fill:rgb(19.215686%,54.901961%,28.627451%);fill-opacity:1;" d="M 61.445312 48.128906 C 58.320312 52.984375 69.769531 63.558594 75.792969 61.085938 C 76.847656 60.652344 80.480469 59.222656 78 57.238281 C 75.515625 55.257812 78.285156 57.476562 78.351562 56.183594 C 78.394531 55.320312 77.726562 53.429688 78.425781 53.511719 C 79.121094 53.589844 79.519531 51.574219 78.003906 51.0625 C 76.925781 50.675781 76.171875 49.703125 76.0625 48.5625 C 75.917969 43.246094 77.71875 37.691406 77.71875 37.691406 L 85.0625 56.488281 C 85.0625 56.488281 85.007812 59.742188 85.945312 58.746094 C 86.878906 57.753906 86.8125 60.96875 86.8125 60.96875 C 86.8125 60.96875 88.203125 61.945312 87.402344 62.484375 C 86.601562 63.027344 88.265625 64.691406 88.265625 64.691406 L 92.148438 64.414062 C 92.148438 64.414062 92.085938 61.527344 91.421875 60.890625 C 90.761719 60.25 91.085938 59.246094 91.085938 59.246094 C 91.085938 59.246094 89.71875 57.976562 90.519531 56.476562 C 91.316406 54.980469 84.710938 28.179688 84.710938 28.179688 C 84.171875 25.550781 82.203125 23.445312 79.621094 22.734375 L 75.429688 21.578125 L 74.6875 18.621094 L 68.785156 18.621094 L 67.757812 20.566406 L 58.332031 19.730469 C 58.332031 19.730469 49.007812 11.238281 49.464844 10.574219 C 49.917969 9.910156 48.472656 8.355469 48.472656 8.355469 C 48.472656 8.355469 47.238281 7.953125 47.9375 7.738281 C 48.632812 7.519531 47.316406 7.019531 47.316406 7.019531 C 47.316406 7.019531 46.097656 6.699219 46.671875 6.277344 C 47.246094 5.855469 44.753906 5.578125 44.753906 5.578125 L 41.515625 8.222656 L 42.171875 9.332031 C 42.171875 9.332031 41.769531 10.84375 42.292969 10.292969 C 42.8125 9.742188 42.910156 11.34375 42.910156 11.34375 C 42.910156 11.34375 43.175781 13.097656 44.753906 13.625 C 46.328125 14.15625 47.523438 19.175781 47.523438 19.175781 L 60.828125 30.277344 C 58.800781 32.605469 59.285156 35.042969 61.078125 37.535156 Z M 61.445312 48.128906 "/>
<path style=" stroke:none;fill-rule:nonzero;fill:rgb(100%,71.372549%,71.372549%);fill-opacity:1;" d="M 77.992188 10.257812 C 77.992188 13.792969 75.132812 16.65625 71.601562 16.65625 C 68.074219 16.65625 65.210938 13.792969 65.210938 10.257812 C 65.210938 6.726562 68.074219 3.859375 71.601562 3.859375 C 75.132812 3.859375 77.992188 6.726562 77.992188 10.257812 Z M 77.992188 10.257812 "/>
<path style=" stroke:none;fill-rule:nonzero;fill:rgb(18.431373%,18.039216%,25.490196%);fill-opacity:1;" d="M 77.179688 8.351562 C 77.015625 8.398438 74.617188 8.714844 73.578125 8.90625 C 72.558594 9.101562 72.378906 7.796875 71.546875 8.042969 C 71.546875 8.035156 71.542969 8.03125 71.542969 8.027344 C 71.414062 7.335938 71.191406 6.667969 70.886719 6.035156 C 70.996094 6.640625 71.011719 7.257812 70.933594 7.867188 C 70.933594 7.882812 70.929688 7.898438 70.925781 7.914062 C 70.925781 7.941406 70.917969 7.96875 70.917969 7.996094 C 70.035156 7.605469 69.476562 7.953125 68.867188 8.074219 C 68.183594 8.210938 67.652344 8.511719 68.035156 10.851562 C 68.816406 15.664062 72.898438 17.382812 72.191406 20.566406 C 72.050781 21.195312 71.703125 21.984375 71.265625 22.179688 C 71.136719 21.488281 70.914062 20.820312 70.609375 20.191406 C 70.71875 20.792969 70.734375 21.414062 70.65625 22.023438 C 69.976562 21.285156 69.484375 18.714844 67.203125 16.679688 C 66.640625 16.179688 63.820312 13.214844 63.484375 12.515625 C 63.585938 13.074219 63.636719 13.644531 63.632812 14.210938 C 63.632812 14.59375 63.605469 14.972656 63.554688 15.351562 C 63.554688 15.375 63.550781 15.398438 63.546875 15.421875 C 63.542969 15.464844 63.535156 15.503906 63.53125 15.546875 C 63.523438 15.59375 63.515625 15.636719 63.507812 15.683594 C 62.585938 15.550781 61.765625 15.390625 61.382812 15.015625 C 59.507812 13.1875 61.796875 9.628906 63.046875 6.410156 C 64.832031 1.800781 70.023438 1.1875 70.527344 1.136719 C 72.75 0.914062 76.507812 1.390625 77.734375 3.914062 C 78.59375 5.679688 78.042969 8.101562 77.179688 8.351562 Z M 77.179688 8.351562 "/>
<path style=" stroke:none;fill-rule:nonzero;fill:rgb(18.431373%,18.039216%,25.490196%);fill-opacity:1;" d="M 63.707031 9.394531 L 68.335938 2.183594 C 67.226562 1.539062 65.960938 1.207031 64.679688 1.222656 C 63.386719 1.25 62.167969 1.828125 61.324219 2.808594 C 60.378906 3.984375 60.214844 5.648438 60.570312 7.117188 C 60.691406 7.621094 63.023438 5.839844 62.46875 6.671875 C 62.011719 7.324219 61.269531 10.0625 61.082031 10.835938 C 60.78125 12.074219 59.957031 13.347656 60.691406 14.394531 C 61.5625 15.625 63.113281 16.238281 64.621094 16.300781 C 66.128906 16.363281 67.609375 15.945312 69.042969 15.472656 Z M 63.707031 9.394531 "/>
<path style=" stroke:none;fill-rule:nonzero;fill:rgb(19.215686%,54.901961%,28.627451%);fill-opacity:1;" d="M 65.484375 9.109375 C 65.347656 9.109375 65.230469 9.007812 65.210938 8.871094 C 65.191406 8.734375 65.277344 8.601562 65.410156 8.566406 C 65.480469 8.445312 65.453125 7.9375 65.429688 7.53125 C 65.335938 5.996094 65.1875 3.433594 67.675781 1.699219 C 67.800781 1.613281 67.972656 1.644531 68.058594 1.769531 C 68.148438 1.894531 68.117188 2.066406 67.992188 2.15625 C 65.757812 3.710938 65.890625 5.988281 65.980469 7.5 C 66.03125 8.359375 66.070312 8.984375 65.546875 9.101562 C 65.527344 9.105469 65.503906 9.109375 65.484375 9.109375 Z M 65.484375 9.109375 "/>
<path style=" stroke:none;fill-rule:nonzero;fill:rgb(80%,80%,80%);fill-opacity:1;" d="M 0 125.429688 C 0 125.613281 0.144531 125.761719 0.328125 125.761719 L 198.578125 125.761719 C 198.761719 125.761719 198.910156 125.613281 198.910156 125.429688 C 198.910156 125.25 198.761719 125.101562 198.578125 125.101562 L 0.328125 125.101562 C 0.148438 125.101562 0 125.246094 0 125.429688 Z M 0 125.429688 "/>
<path style=" stroke:none;fill-rule:nonzero;fill:rgb(19.215686%,54.901961%,28.627451%);fill-opacity:1;" d="M 122.652344 26.324219 L 118.457031 26.324219 C 118.226562 26.324219 118.039062 26.136719 118.039062 25.902344 C 118.039062 25.671875 118.226562 25.484375 118.457031 25.484375 L 122.652344 25.484375 C 122.882812 25.484375 123.070312 25.671875 123.070312 25.902344 C 123.070312 26.136719 122.882812 26.324219 122.652344 26.324219 Z M 122.652344 26.324219 "/>
<path style=" stroke:none;fill-rule:nonzero;fill:rgb(19.215686%,54.901961%,28.627451%);fill-opacity:1;" d="M 130.203125 26.324219 L 126.007812 26.324219 C 125.777344 26.324219 125.589844 26.136719 125.589844 25.902344 C 125.589844 25.671875 125.777344 25.484375 126.007812 25.484375 L 130.203125 25.484375 C 130.433594 25.484375 130.621094 25.671875 130.621094 25.902344 C 130.621094 26.136719 130.433594 26.324219 130.203125 26.324219 Z M 130.203125 26.324219 "/>
<path style=" stroke:none;fill-rule:nonzero;fill:rgb(19.215686%,54.901961%,28.627451%);fill-opacity:1;" d="M 133.976562 29.683594 L 129.78125 29.683594 C 129.550781 29.683594 129.363281 29.496094 129.363281 29.261719 C 129.363281 29.03125 129.550781 28.84375 129.78125 28.84375 L 133.976562 28.84375 C 134.207031 28.84375 134.394531 29.03125 134.394531 29.261719 C 134.394531 29.496094 134.207031 29.683594 133.976562 29.683594 Z M 133.976562 29.683594 "/>
<path style=" stroke:none;fill-rule:nonzero;fill:rgb(19.215686%,54.901961%,28.627451%);fill-opacity:1;" d="M 126.449219 29.683594 L 118.457031 29.683594 C 118.226562 29.683594 118.039062 29.496094 118.039062 29.261719 C 118.039062 29.03125 118.226562 28.84375 118.457031 28.84375 L 126.449219 28.84375 C 126.683594 28.84375 126.871094 29.03125 126.871094 29.261719 C 126.871094 29.496094 126.683594 29.683594 126.449219 29.683594 Z M 126.449219 29.683594 "/>
<path style=" stroke:none;fill-rule:nonzero;fill:rgb(19.215686%,54.901961%,28.627451%);fill-opacity:1;" d="M 141.546875 26.324219 L 133.558594 26.324219 C 133.324219 26.324219 133.136719 26.136719 133.136719 25.902344 C 133.136719 25.671875 133.324219 25.484375 133.558594 25.484375 L 141.546875 25.484375 C 141.78125 25.484375 141.96875 25.671875 141.96875 25.902344 C 141.96875 26.136719 141.78125 26.324219 141.546875 26.324219 Z M 141.546875 26.324219 "/>
<path style=" stroke:none;fill-rule:nonzero;fill:rgb(19.215686%,54.901961%,28.627451%);fill-opacity:1;" d="M 125.523438 19.960938 L 117.53125 19.960938 C 117.382812 19.960938 117.242188 19.882812 117.167969 19.753906 C 117.09375 19.621094 117.09375 19.460938 117.167969 19.332031 C 117.242188 19.203125 117.382812 19.121094 117.53125 19.121094 L 125.523438 19.121094 C 125.753906 19.121094 125.941406 19.308594 125.941406 19.542969 C 125.941406 19.773438 125.753906 19.960938 125.523438 19.960938 Z M 125.523438 19.960938 "/>
<path style=" stroke:none;fill-rule:nonzero;fill:rgb(19.215686%,54.901961%,28.627451%);fill-opacity:1;" d="M 126.179688 22.414062 C 126.019531 22.414062 125.878906 22.3125 125.824219 22.160156 C 125.773438 22.007812 125.824219 21.839844 125.949219 21.742188 L 127.996094 20.148438 C 128.164062 20.019531 128.265625 19.828125 128.285156 19.617188 C 128.300781 19.40625 128.230469 19.199219 128.085938 19.042969 L 126.371094 17.179688 C 126.230469 17.027344 126.238281 16.789062 126.390625 16.648438 C 126.542969 16.507812 126.78125 16.519531 126.921875 16.671875 L 129.472656 19.4375 C 129.542969 19.515625 129.578125 19.617188 129.570312 19.722656 C 129.5625 19.828125 129.511719 19.925781 129.425781 19.988281 L 126.410156 22.335938 C 126.34375 22.386719 126.265625 22.414062 126.179688 22.414062 Z M 126.179688 22.414062 "/>
<path style=" stroke:none;fill-rule:nonzero;fill:rgb(19.215686%,54.901961%,28.627451%);fill-opacity:1;" d="M 117.128906 22.414062 C 117.289062 22.414062 117.429688 22.3125 117.484375 22.160156 C 117.535156 22.007812 117.484375 21.839844 117.359375 21.742188 L 115.3125 20.148438 C 115.144531 20.019531 115.042969 19.828125 115.023438 19.617188 C 115.007812 19.40625 115.078125 19.199219 115.222656 19.042969 L 116.9375 17.179688 C 117.078125 17.027344 117.070312 16.789062 116.917969 16.648438 C 116.765625 16.507812 116.527344 16.519531 116.386719 16.671875 L 113.835938 19.4375 C 113.765625 19.515625 113.730469 19.617188 113.738281 19.722656 C 113.746094 19.828125 113.796875 19.925781 113.882812 19.988281 L 116.898438 22.335938 C 116.964844 22.386719 117.042969 22.414062 117.128906 22.414062 Z M 117.128906 22.414062 "/>
<path style=" stroke:none;fill-rule:nonzero;fill:rgb(19.215686%,54.901961%,28.627451%);fill-opacity:1;" d="M 129.65625 36.886719 L 121.664062 36.886719 C 121.433594 36.886719 121.242188 36.699219 121.242188 36.464844 C 121.242188 36.234375 121.433594 36.046875 121.664062 36.046875 L 129.65625 36.046875 C 129.886719 36.046875 130.074219 36.234375 130.074219 36.464844 C 130.074219 36.699219 129.886719 36.886719 129.65625 36.886719 Z M 129.65625 36.886719 "/>
<path style=" stroke:none;fill-rule:nonzero;fill:rgb(19.215686%,54.901961%,28.627451%);fill-opacity:1;" d="M 131.0625 38.964844 C 130.902344 38.964844 130.761719 38.859375 130.707031 38.710938 C 130.65625 38.558594 130.707031 38.390625 130.832031 38.289062 L 132.878906 36.699219 C 133.046875 36.566406 133.148438 36.375 133.167969 36.164062 C 133.183594 35.953125 133.113281 35.746094 132.96875 35.589844 L 131.25 33.730469 C 131.109375 33.578125 131.121094 33.339844 131.273438 33.199219 C 131.425781 33.058594 131.664062 33.066406 131.804688 33.21875 L 134.355469 35.984375 C 134.425781 36.0625 134.460938 36.164062 134.453125 36.269531 C 134.445312 36.375 134.390625 36.472656 134.308594 36.535156 L 131.292969 38.882812 C 131.226562 38.933594 131.148438 38.964844 131.0625 38.964844 Z M 131.0625 38.964844 "/>
<path style=" stroke:none;fill-rule:nonzero;fill:rgb(19.215686%,54.901961%,28.627451%);fill-opacity:1;" d="M 117.128906 38.964844 C 117.289062 38.964844 117.429688 38.859375 117.484375 38.710938 C 117.535156 38.558594 117.484375 38.390625 117.359375 38.289062 L 115.3125 36.699219 C 115.144531 36.566406 115.042969 36.375 115.023438 36.164062 C 115.007812 35.953125 115.078125 35.746094 115.222656 35.589844 L 116.9375 33.730469 C 117.078125 33.578125 117.070312 33.339844 116.917969 33.199219 C 116.765625 33.058594 116.527344 33.066406 116.386719 33.21875 L 113.835938 35.984375 C 113.765625 36.0625 113.730469 36.164062 113.738281 36.269531 C 113.746094 36.375 113.796875 36.472656 113.882812 36.535156 L 116.898438 38.882812 C 116.964844 38.933594 117.042969 38.964844 117.128906 38.964844 Z M 117.128906 38.964844 "/>
<path style=" stroke:none;fill-rule:nonzero;fill:rgb(19.215686%,54.901961%,28.627451%);fill-opacity:1;" d="M 117.839844 37.785156 L 119.519531 33.9375 C 119.613281 33.726562 119.859375 33.632812 120.070312 33.722656 C 120.285156 33.816406 120.378906 34.0625 120.289062 34.273438 L 118.609375 38.121094 C 118.550781 38.261719 118.421875 38.355469 118.273438 38.375 C 118.121094 38.390625 117.976562 38.328125 117.886719 38.207031 C 117.796875 38.082031 117.78125 37.925781 117.839844 37.785156 Z M 117.839844 37.785156 "/>
</g>
</svg>
