<?xml version="1.0" encoding="UTF-8"?>
<svg xmlns="http://www.w3.org/2000/svg" xmlns:xlink="http://www.w3.org/1999/xlink" width="200px" height="147px" viewBox="0 0 200 147" version="1.1">
<defs>
<filter id="alpha" filterUnits="objectBoundingBox" x="0%" y="0%" width="100%" height="100%">
  <feColorMatrix type="matrix" in="SourceGraphic" values="0 0 0 0 1 0 0 0 0 1 0 0 0 0 1 0 0 0 1 0"/>
</filter>
<mask id="mask0">
  <g filter="url(#alpha)">
<rect x="0" y="0" width="200" height="147" style="fill:rgb(0%,0%,0%);fill-opacity:0.2;stroke:none;"/>
  </g>
</mask>
<clipPath id="clip1">
  <rect x="0" y="0" width="200" height="147"/>
</clipPath>
<g id="surface5" clip-path="url(#clip1)">
<path style=" stroke:none;fill-rule:nonzero;fill:rgb(0%,0%,0%);fill-opacity:1;" d="M 161.542969 34.621094 L 161.542969 33.988281 L 150.949219 33.988281 L 150.949219 26.660156 L 150.320312 26.660156 L 150.320312 33.988281 L 138.175781 33.988281 L 138.175781 26.660156 L 137.546875 26.660156 L 137.546875 33.988281 L 129.527344 33.988281 C 129.4375 34.199219 129.351562 34.410156 129.269531 34.621094 L 137.546875 34.621094 L 137.546875 47.019531 L 127.269531 47.019531 C 127.28125 47.230469 127.292969 47.441406 127.3125 47.652344 L 137.546875 47.652344 L 137.546875 57.542969 L 129.878906 57.542969 C 129.972656 57.753906 130.070312 57.964844 130.175781 58.171875 L 137.546875 58.171875 L 137.546875 66.484375 L 138.175781 66.484375 L 138.175781 58.171875 L 150.320312 58.171875 L 150.320312 66.484375 L 150.949219 66.484375 L 150.949219 58.171875 L 161.542969 58.171875 L 161.542969 57.542969 L 150.949219 57.542969 L 150.949219 47.652344 L 161.542969 47.652344 L 161.542969 47.019531 L 150.949219 47.019531 L 150.949219 34.621094 Z M 150.320312 57.542969 L 138.175781 57.542969 L 138.175781 47.652344 L 150.320312 47.652344 Z M 150.320312 47.019531 L 138.175781 47.019531 L 138.175781 34.621094 L 150.320312 34.621094 Z M 150.320312 47.019531 "/>
</g>
</defs>
<g id="surface1">
<path style=" stroke:none;fill-rule:nonzero;fill:rgb(100%,71.372549%,71.372549%);fill-opacity:1;" d="M 93.574219 116.421875 L 96.734375 115.007812 L 92.773438 101.839844 L 88.109375 103.929688 Z M 93.574219 116.421875 "/>
<path style=" stroke:none;fill-rule:nonzero;fill:rgb(18.431373%,18.039216%,25.490196%);fill-opacity:1;" d="M 91.308594 112.847656 L 96.035156 109.507812 L 97.339844 111.613281 L 104.007812 111.941406 C 104.683594 111.972656 105.257812 112.441406 105.429688 113.097656 C 105.597656 113.753906 105.320312 114.445312 104.746094 114.800781 L 98.902344 118.429688 L 96.605469 116.972656 L 97.5 119.296875 L 95.296875 120.664062 Z M 91.308594 112.847656 "/>
<path style=" stroke:none;fill-rule:nonzero;fill:rgb(90.196078%,90.196078%,90.196078%);fill-opacity:1;" d="M 174.746094 91.5 C 174.746094 90.175781 174.300781 89.101562 173.757812 89.097656 L 24.992188 89.097656 C 24.445312 89.101562 24.003906 90.175781 24 91.5 L 24 146.011719 C 24 146.265625 23.808594 146.480469 23.554688 146.503906 C 23.15625 146.542969 22.753906 146.578125 22.355469 146.613281 C 22.347656 146.613281 22.335938 146.613281 22.328125 146.613281 C 22.109375 146.632812 21.890625 146.648438 21.675781 146.667969 L 21.671875 146.667969 C 21.5625 146.460938 21.449219 146.25 21.339844 146.039062 C 21.304688 145.96875 21.285156 145.890625 21.285156 145.8125 L 21.285156 88.386719 C 21.285156 88.019531 21.300781 87.652344 21.324219 87.289062 C 21.359375 86.789062 21.421875 86.292969 21.507812 85.800781 C 21.925781 83.507812 22.871094 81.953125 23.941406 81.945312 L 174.804688 81.945312 C 174.960938 81.949219 175.117188 81.980469 175.261719 82.042969 C 175.472656 82.136719 175.660156 82.269531 175.820312 82.4375 C 176.039062 82.660156 176.222656 82.914062 176.371094 83.191406 C 176.898438 84.121094 177.277344 85.507812 177.410156 87.125 C 177.410156 87.140625 177.414062 87.15625 177.414062 87.171875 C 177.449219 87.570312 177.464844 87.976562 177.460938 88.386719 L 177.496094 93.679688 L 177.519531 96.835938 L 177.585938 106.746094 L 177.609375 110.261719 L 177.71875 146.382812 C 177.71875 146.65625 177.5 146.875 177.226562 146.875 L 175.242188 146.875 C 174.96875 146.875 174.746094 146.65625 174.746094 146.382812 Z M 174.746094 91.5 "/>
<path style=" stroke:none;fill-rule:nonzero;fill:rgb(18.431373%,18.039216%,25.490196%);fill-opacity:1;" d="M 134.324219 57.171875 L 118.292969 57.171875 C 117.820312 57.175781 117.4375 57.558594 117.441406 58.03125 L 117.441406 83.367188 L 135.179688 83.367188 L 135.179688 58.03125 C 135.179688 57.800781 135.089844 57.585938 134.929688 57.425781 C 134.769531 57.261719 134.550781 57.171875 134.324219 57.171875 Z M 126.363281 71.570312 C 125.320312 71.5625 124.472656 70.71875 124.46875 69.675781 L 124.46875 66.753906 C 124.46875 65.707031 125.316406 64.859375 126.363281 64.859375 C 127.40625 64.859375 128.253906 65.707031 128.253906 66.753906 L 128.253906 69.675781 C 128.25 70.71875 127.40625 71.5625 126.363281 71.570312 Z M 126.363281 71.570312 "/>
<path style=" stroke:none;fill-rule:nonzero;fill:rgb(24.705882%,23.921569%,33.72549%);fill-opacity:1;" d="M 117.382812 82.554688 L 117.382812 85 C 117.386719 85.265625 117.597656 85.476562 117.863281 85.476562 L 134.757812 85.476562 C 135.019531 85.476562 135.234375 85.265625 135.234375 85 L 135.234375 82.554688 Z M 117.382812 82.554688 "/>
<path style=" stroke:none;fill-rule:nonzero;fill:rgb(100%,71.372549%,71.372549%);fill-opacity:1;" d="M 96.789062 21.890625 C 96.414062 22.828125 95.644531 23.558594 94.683594 23.875 C 93.722656 24.191406 92.671875 24.066406 91.8125 23.535156 L 69.1875 39.304688 L 68.5625 33.019531 L 90.808594 18.597656 C 91.820312 17.179688 93.734375 16.746094 95.257812 17.585938 C 96.785156 18.425781 97.441406 20.273438 96.789062 21.890625 Z M 96.789062 21.890625 "/>
<path style=" stroke:none;fill-rule:nonzero;fill:rgb(19.215686%,54.901961%,28.627451%);fill-opacity:1;" d="M 46.128906 31.832031 C 46.128906 31.832031 43.679688 35.457031 47.523438 38.660156 C 51.367188 41.867188 66.953125 41.230469 69.464844 41.203125 C 71.980469 41.175781 83.519531 29.230469 83.519531 29.230469 L 83.445312 22.335938 L 69.511719 30.605469 Z M 46.128906 31.832031 "/>
<path style=" stroke:none;fill-rule:nonzero;fill:rgb(100%,71.372549%,71.372549%);fill-opacity:1;" d="M 44.742188 55.882812 L 44.988281 60.578125 C 44.988281 60.578125 44.261719 64.734375 44.859375 65.632812 C 45.453125 66.523438 61.789062 67.851562 61.789062 67.851562 C 61.789062 67.851562 61.277344 60.851562 62.203125 55.789062 Z M 44.742188 55.882812 "/>
<path style=" stroke:none;fill-rule:nonzero;fill:rgb(18.431373%,18.039216%,25.490196%);fill-opacity:1;" d="M 94.878906 103.675781 L 88.589844 109.183594 L 76.265625 83.964844 C 64.042969 86.066406 52.515625 86.742188 42.542969 84.199219 C 39.164062 83.347656 37.101562 79.859375 37.933594 76.40625 C 37.96875 76.246094 38.015625 76.085938 38.066406 75.925781 C 39.261719 72.28125 42.382812 69.703125 44.84375 65.699219 L 62.824219 65.96875 L 60.816406 72.902344 L 78.28125 70.640625 C 81.796875 70.1875 85.003906 72.730469 85.449219 76.324219 C 85.472656 76.515625 85.484375 76.703125 85.492188 76.894531 Z M 94.878906 103.675781 "/>
<path style=" stroke:none;fill-rule:nonzero;fill:rgb(100%,71.372549%,71.372549%);fill-opacity:1;" d="M 59.0625 16.988281 C 59.0625 21.023438 55.796875 24.292969 51.761719 24.292969 C 47.730469 24.292969 44.460938 21.023438 44.460938 16.988281 C 44.460938 12.953125 47.730469 9.683594 51.761719 9.683594 C 55.796875 9.683594 59.0625 12.953125 59.0625 16.988281 Z M 59.0625 16.988281 "/>
<path style=" stroke:none;fill-rule:nonzero;fill:rgb(19.215686%,54.901961%,28.627451%);fill-opacity:1;" d="M 47.484375 26.929688 L 54.175781 27.71875 C 54.753906 27.785156 55.226562 28.214844 55.351562 28.785156 L 56.417969 33.660156 L 63.050781 41.476562 C 63.050781 41.476562 65.4375 45.949219 64.542969 51.015625 C 64.003906 54.066406 63.074219 57.035156 61.773438 59.847656 C 61.773438 59.847656 45.453125 66.527344 44.859375 65.632812 C 44.261719 64.738281 44.070312 60.675781 44.070312 60.675781 L 41.96875 37.304688 C 41.726562 34.808594 42.609375 32.339844 44.378906 30.566406 C 44.910156 30.042969 45.429688 29.679688 45.855469 29.679688 C 46.816406 29.644531 46.695312 27.480469 47.484375 26.929688 Z M 47.484375 26.929688 "/>
<path style=" stroke:none;fill-rule:nonzero;fill:rgb(100%,71.372549%,71.372549%);fill-opacity:1;" d="M 61.847656 126.214844 L 64.953125 127.738281 L 72.429688 116.207031 L 67.847656 113.960938 Z M 61.847656 126.214844 "/>
<path style=" stroke:none;fill-rule:nonzero;fill:rgb(18.431373%,18.039216%,25.490196%);fill-opacity:1;" d="M 69.289062 123.609375 L 62.90625 121.183594 L 71.664062 94.863281 C 59.765625 91.371094 50.789062 85.75 42.953125 79.074219 C 40.292969 76.824219 38.300781 73.9375 40.5625 71.199219 C 40.671875 71.074219 40.78125 70.949219 40.894531 70.828125 C 43.570312 68.082031 50.355469 68.609375 54.328125 66.09375 L 63.210938 75.585938 L 62.65625 78.128906 L 79.335938 83.785156 C 82.6875 84.925781 84.453125 88.621094 83.269531 92.042969 C 83.207031 92.222656 83.136719 92.402344 83.0625 92.578125 Z M 69.289062 123.609375 "/>
<path style=" stroke:none;fill-rule:nonzero;fill:rgb(18.431373%,18.039216%,25.490196%);fill-opacity:1;" d="M 61.742188 124.378906 L 67.082031 126.613281 L 65.992188 128.835938 L 69.253906 134.660156 C 69.585938 135.253906 69.496094 135.988281 69.03125 136.480469 C 68.5625 136.972656 67.832031 137.105469 67.226562 136.808594 L 61.050781 133.78125 L 61.0625 131.058594 L 59.570312 133.054688 L 57.242188 131.914062 Z M 61.742188 124.378906 "/>
<path style=" stroke:none;fill-rule:nonzero;fill:rgb(100%,71.372549%,71.372549%);fill-opacity:1;" d="M 51.300781 84.074219 C 50.453125 83.523438 49.890625 82.621094 49.773438 81.617188 C 49.652344 80.613281 49.980469 79.605469 50.675781 78.867188 L 39.703125 53.550781 L 45.984375 54.183594 L 55.707031 78.859375 C 56.894531 80.132812 56.941406 82.097656 55.820312 83.425781 C 54.695312 84.757812 52.753906 85.035156 51.300781 84.074219 Z M 51.300781 84.074219 "/>
<path style=" stroke:none;fill-rule:nonzero;fill:rgb(19.215686%,54.901961%,28.627451%);fill-opacity:1;" d="M 51.589844 32.417969 C 51.589844 32.417969 48.527344 29.300781 44.625 32.433594 C 40.722656 35.570312 38.261719 50.980469 37.792969 53.453125 C 37.320312 55.925781 46.734375 69.605469 46.734375 69.605469 L 53.507812 70.898438 L 48.164062 55.597656 Z M 51.589844 32.417969 "/>
<path style=" stroke:none;fill-rule:nonzero;fill:rgb(24.705882%,23.921569%,33.72549%);fill-opacity:1;" d="M 160.867188 17.632812 L 92.347656 17.632812 C 91.121094 17.632812 90.128906 18.628906 90.125 19.855469 L 90.125 66.117188 C 90.125 67.34375 91.121094 68.339844 92.347656 68.339844 L 160.867188 68.339844 C 162.09375 68.339844 163.085938 67.34375 163.085938 66.117188 L 163.085938 19.855469 C 163.085938 18.628906 162.09375 17.632812 160.867188 17.632812 Z M 160.867188 17.632812 "/>
<path style=" stroke:none;fill-rule:nonzero;fill:rgb(100%,100%,100%);fill-opacity:1;" d="M 160.292969 19.238281 L 92.917969 19.238281 C 92.261719 19.238281 91.730469 19.769531 91.730469 20.429688 L 91.730469 65.546875 C 91.734375 66.203125 92.261719 66.734375 92.917969 66.734375 L 160.292969 66.734375 C 160.949219 66.734375 161.480469 66.203125 161.480469 65.546875 L 161.480469 20.429688 C 161.480469 19.769531 160.949219 19.238281 160.292969 19.238281 Z M 160.292969 19.238281 "/>
<path style=" stroke:none;fill-rule:nonzero;fill:rgb(18.431373%,18.039216%,25.490196%);fill-opacity:1;" d="M 147.171875 86.328125 L 107.085938 86.328125 C 106.863281 86.328125 106.652344 86.230469 106.511719 86.054688 C 106.375 85.882812 106.320312 85.65625 106.363281 85.4375 L 106.988281 82.484375 C 107.058594 82.144531 107.359375 81.898438 107.707031 81.898438 L 146.550781 81.898438 C 146.898438 81.898438 147.199219 82.144531 147.269531 82.484375 L 147.890625 85.4375 C 147.9375 85.65625 147.882812 85.882812 147.742188 86.054688 C 147.601562 86.230469 147.394531 86.328125 147.171875 86.328125 Z M 147.171875 86.328125 "/>
<path style=" stroke:none;fill-rule:nonzero;fill:rgb(24.705882%,23.921569%,33.72549%);fill-opacity:1;" d="M 108.113281 82.429688 L 109.105469 82.429688 C 109.171875 82.429688 109.226562 82.484375 109.226562 82.550781 L 109.226562 83.050781 C 109.226562 83.117188 109.171875 83.171875 109.105469 83.171875 L 108.113281 83.171875 C 108.046875 83.171875 107.992188 83.117188 107.992188 83.050781 L 107.992188 82.550781 C 107.992188 82.484375 108.046875 82.429688 108.113281 82.429688 Z M 108.113281 82.429688 "/>
<path style=" stroke:none;fill-rule:nonzero;fill:rgb(24.705882%,23.921569%,33.72549%);fill-opacity:1;" d="M 110.582031 82.429688 L 111.574219 82.429688 C 111.640625 82.429688 111.695312 82.484375 111.695312 82.550781 L 111.695312 83.050781 C 111.695312 83.117188 111.640625 83.171875 111.574219 83.171875 L 110.582031 83.171875 C 110.515625 83.171875 110.460938 83.117188 110.460938 83.050781 L 110.460938 82.550781 C 110.460938 82.484375 110.515625 82.429688 110.582031 82.429688 Z M 110.582031 82.429688 "/>
<path style=" stroke:none;fill-rule:nonzero;fill:rgb(24.705882%,23.921569%,33.72549%);fill-opacity:1;" d="M 113.050781 82.429688 L 114.042969 82.429688 C 114.113281 82.429688 114.164062 82.484375 114.164062 82.550781 L 114.164062 83.050781 C 114.164062 83.117188 114.113281 83.171875 114.042969 83.171875 L 113.050781 83.171875 C 112.984375 83.171875 112.929688 83.117188 112.929688 83.050781 L 112.929688 82.550781 C 112.929688 82.484375 112.984375 82.429688 113.050781 82.429688 Z M 113.050781 82.429688 "/>
<path style=" stroke:none;fill-rule:nonzero;fill:rgb(24.705882%,23.921569%,33.72549%);fill-opacity:1;" d="M 115.519531 82.429688 L 116.515625 82.429688 C 116.582031 82.429688 116.632812 82.484375 116.632812 82.550781 L 116.632812 83.050781 C 116.632812 83.117188 116.582031 83.171875 116.515625 83.171875 L 115.519531 83.171875 C 115.453125 83.171875 115.398438 83.117188 115.398438 83.050781 L 115.398438 82.550781 C 115.398438 82.484375 115.453125 82.429688 115.519531 82.429688 Z M 115.519531 82.429688 "/>
<path style=" stroke:none;fill-rule:nonzero;fill:rgb(24.705882%,23.921569%,33.72549%);fill-opacity:1;" d="M 117.988281 82.429688 L 118.984375 82.429688 C 119.050781 82.429688 119.105469 82.484375 119.105469 82.550781 L 119.105469 83.050781 C 119.105469 83.117188 119.050781 83.171875 118.984375 83.171875 L 117.988281 83.171875 C 117.921875 83.171875 117.871094 83.117188 117.871094 83.050781 L 117.871094 82.550781 C 117.871094 82.484375 117.921875 82.429688 117.988281 82.429688 Z M 117.988281 82.429688 "/>
<path style=" stroke:none;fill-rule:nonzero;fill:rgb(24.705882%,23.921569%,33.72549%);fill-opacity:1;" d="M 120.457031 82.429688 L 121.453125 82.429688 C 121.519531 82.429688 121.574219 82.484375 121.574219 82.550781 L 121.574219 83.050781 C 121.574219 83.117188 121.519531 83.171875 121.453125 83.171875 L 120.457031 83.171875 C 120.390625 83.171875 120.339844 83.117188 120.339844 83.050781 L 120.339844 82.550781 C 120.339844 82.484375 120.390625 82.429688 120.457031 82.429688 Z M 120.457031 82.429688 "/>
<path style=" stroke:none;fill-rule:nonzero;fill:rgb(24.705882%,23.921569%,33.72549%);fill-opacity:1;" d="M 122.929688 82.429688 L 123.921875 82.429688 C 123.988281 82.429688 124.042969 82.484375 124.042969 82.550781 L 124.042969 83.050781 C 124.042969 83.117188 123.988281 83.171875 123.921875 83.171875 L 122.929688 83.171875 C 122.863281 83.171875 122.808594 83.117188 122.808594 83.050781 L 122.808594 82.550781 C 122.808594 82.484375 122.863281 82.429688 122.929688 82.429688 Z M 122.929688 82.429688 "/>
<path style=" stroke:none;fill-rule:nonzero;fill:rgb(24.705882%,23.921569%,33.72549%);fill-opacity:1;" d="M 125.398438 82.429688 L 126.390625 82.429688 C 126.457031 82.429688 126.511719 82.484375 126.511719 82.550781 L 126.511719 83.050781 C 126.511719 83.117188 126.457031 83.171875 126.390625 83.171875 L 125.398438 83.171875 C 125.332031 83.171875 125.277344 83.117188 125.277344 83.050781 L 125.277344 82.550781 C 125.277344 82.484375 125.332031 82.429688 125.398438 82.429688 Z M 125.398438 82.429688 "/>
<path style=" stroke:none;fill-rule:nonzero;fill:rgb(24.705882%,23.921569%,33.72549%);fill-opacity:1;" d="M 127.867188 82.429688 L 128.859375 82.429688 C 128.925781 82.429688 128.980469 82.484375 128.980469 82.550781 L 128.980469 83.050781 C 128.980469 83.117188 128.925781 83.171875 128.859375 83.171875 L 127.867188 83.171875 C 127.800781 83.171875 127.746094 83.117188 127.746094 83.050781 L 127.746094 82.550781 C 127.746094 82.484375 127.800781 82.429688 127.867188 82.429688 Z M 127.867188 82.429688 "/>
<path style=" stroke:none;fill-rule:nonzero;fill:rgb(24.705882%,23.921569%,33.72549%);fill-opacity:1;" d="M 130.335938 82.429688 L 131.328125 82.429688 C 131.394531 82.429688 131.449219 82.484375 131.449219 82.550781 L 131.449219 83.050781 C 131.449219 83.117188 131.394531 83.171875 131.328125 83.171875 L 130.335938 83.171875 C 130.269531 83.171875 130.214844 83.117188 130.214844 83.050781 L 130.214844 82.550781 C 130.214844 82.484375 130.269531 82.429688 130.335938 82.429688 Z M 130.335938 82.429688 "/>
<path style=" stroke:none;fill-rule:nonzero;fill:rgb(24.705882%,23.921569%,33.72549%);fill-opacity:1;" d="M 132.804688 82.429688 L 133.796875 82.429688 C 133.863281 82.429688 133.917969 82.484375 133.917969 82.550781 L 133.917969 83.050781 C 133.917969 83.117188 133.863281 83.171875 133.796875 83.171875 L 132.804688 83.171875 C 132.738281 83.171875 132.683594 83.117188 132.683594 83.050781 L 132.683594 82.550781 C 132.683594 82.484375 132.738281 82.429688 132.804688 82.429688 Z M 132.804688 82.429688 "/>
<path style=" stroke:none;fill-rule:nonzero;fill:rgb(24.705882%,23.921569%,33.72549%);fill-opacity:1;" d="M 135.273438 82.429688 L 136.265625 82.429688 C 136.332031 82.429688 136.386719 82.484375 136.386719 82.550781 L 136.386719 83.050781 C 136.386719 83.117188 136.332031 83.171875 136.265625 83.171875 L 135.273438 83.171875 C 135.207031 83.171875 135.152344 83.117188 135.152344 83.050781 L 135.152344 82.550781 C 135.152344 82.484375 135.207031 82.429688 135.273438 82.429688 Z M 135.273438 82.429688 "/>
<path style=" stroke:none;fill-rule:nonzero;fill:rgb(24.705882%,23.921569%,33.72549%);fill-opacity:1;" d="M 137.742188 82.429688 L 138.734375 82.429688 C 138.804688 82.429688 138.855469 82.484375 138.855469 82.550781 L 138.855469 83.050781 C 138.855469 83.117188 138.804688 83.171875 138.734375 83.171875 L 137.742188 83.171875 C 137.675781 83.171875 137.621094 83.117188 137.621094 83.050781 L 137.621094 82.550781 C 137.621094 82.484375 137.675781 82.429688 137.742188 82.429688 Z M 137.742188 82.429688 "/>
<path style=" stroke:none;fill-rule:nonzero;fill:rgb(24.705882%,23.921569%,33.72549%);fill-opacity:1;" d="M 140.210938 82.429688 L 141.207031 82.429688 C 141.273438 82.429688 141.324219 82.484375 141.324219 82.550781 L 141.324219 83.050781 C 141.324219 83.117188 141.273438 83.171875 141.207031 83.171875 L 140.210938 83.171875 C 140.144531 83.171875 140.089844 83.117188 140.089844 83.050781 L 140.089844 82.550781 C 140.089844 82.484375 140.144531 82.429688 140.210938 82.429688 Z M 140.210938 82.429688 "/>
<path style=" stroke:none;fill-rule:nonzero;fill:rgb(24.705882%,23.921569%,33.72549%);fill-opacity:1;" d="M 142.679688 82.429688 L 143.675781 82.429688 C 143.742188 82.429688 143.796875 82.484375 143.796875 82.550781 L 143.796875 83.050781 C 143.796875 83.117188 143.742188 83.171875 143.675781 83.171875 L 142.679688 83.171875 C 142.613281 83.171875 142.558594 83.117188 142.558594 83.050781 L 142.558594 82.550781 C 142.558594 82.484375 142.613281 82.429688 142.679688 82.429688 Z M 142.679688 82.429688 "/>
<path style=" stroke:none;fill-rule:nonzero;fill:rgb(24.705882%,23.921569%,33.72549%);fill-opacity:1;" d="M 145.148438 82.429688 L 146.144531 82.429688 C 146.210938 82.429688 146.265625 82.484375 146.265625 82.550781 L 146.265625 83.050781 C 146.265625 83.117188 146.210938 83.171875 146.144531 83.171875 L 145.148438 83.171875 C 145.082031 83.171875 145.03125 83.117188 145.03125 83.050781 L 145.03125 82.550781 C 145.03125 82.484375 145.082031 82.429688 145.148438 82.429688 Z M 145.148438 82.429688 "/>
<path style=" stroke:none;fill-rule:nonzero;fill:rgb(24.705882%,23.921569%,33.72549%);fill-opacity:1;" d="M 108.082031 83.664062 L 109.078125 83.664062 C 109.144531 83.664062 109.199219 83.71875 109.199219 83.785156 L 109.199219 84.285156 C 109.199219 84.351562 109.144531 84.40625 109.078125 84.40625 L 108.082031 84.40625 C 108.015625 84.40625 107.964844 84.351562 107.964844 84.285156 L 107.964844 83.785156 C 107.964844 83.71875 108.015625 83.664062 108.082031 83.664062 Z M 108.082031 83.664062 "/>
<path style=" stroke:none;fill-rule:nonzero;fill:rgb(24.705882%,23.921569%,33.72549%);fill-opacity:1;" d="M 110.554688 83.664062 L 111.546875 83.664062 C 111.613281 83.664062 111.667969 83.71875 111.667969 83.785156 L 111.667969 84.285156 C 111.667969 84.351562 111.613281 84.40625 111.546875 84.40625 L 110.554688 84.40625 C 110.488281 84.40625 110.433594 84.351562 110.433594 84.285156 L 110.433594 83.785156 C 110.433594 83.71875 110.488281 83.664062 110.554688 83.664062 Z M 110.554688 83.664062 "/>
<path style=" stroke:none;fill-rule:nonzero;fill:rgb(24.705882%,23.921569%,33.72549%);fill-opacity:1;" d="M 113.023438 83.664062 L 114.015625 83.664062 C 114.082031 83.664062 114.136719 83.71875 114.136719 83.785156 L 114.136719 84.285156 C 114.136719 84.351562 114.082031 84.40625 114.015625 84.40625 L 113.023438 84.40625 C 112.957031 84.40625 112.902344 84.351562 112.902344 84.285156 L 112.902344 83.785156 C 112.902344 83.71875 112.957031 83.664062 113.023438 83.664062 Z M 113.023438 83.664062 "/>
<path style=" stroke:none;fill-rule:nonzero;fill:rgb(24.705882%,23.921569%,33.72549%);fill-opacity:1;" d="M 115.492188 83.664062 L 116.484375 83.664062 C 116.550781 83.664062 116.605469 83.71875 116.605469 83.785156 L 116.605469 84.285156 C 116.605469 84.351562 116.550781 84.40625 116.484375 84.40625 L 115.492188 84.40625 C 115.425781 84.40625 115.371094 84.351562 115.371094 84.285156 L 115.371094 83.785156 C 115.371094 83.71875 115.425781 83.664062 115.492188 83.664062 Z M 115.492188 83.664062 "/>
<path style=" stroke:none;fill-rule:nonzero;fill:rgb(24.705882%,23.921569%,33.72549%);fill-opacity:1;" d="M 117.960938 83.664062 L 118.953125 83.664062 C 119.019531 83.664062 119.074219 83.71875 119.074219 83.785156 L 119.074219 84.285156 C 119.074219 84.351562 119.019531 84.40625 118.953125 84.40625 L 117.960938 84.40625 C 117.894531 84.40625 117.839844 84.351562 117.839844 84.285156 L 117.839844 83.785156 C 117.839844 83.71875 117.894531 83.664062 117.960938 83.664062 Z M 117.960938 83.664062 "/>
<path style=" stroke:none;fill-rule:nonzero;fill:rgb(24.705882%,23.921569%,33.72549%);fill-opacity:1;" d="M 120.429688 83.664062 L 121.421875 83.664062 C 121.488281 83.664062 121.542969 83.71875 121.542969 83.785156 L 121.542969 84.285156 C 121.542969 84.351562 121.488281 84.40625 121.421875 84.40625 L 120.429688 84.40625 C 120.363281 84.40625 120.308594 84.351562 120.308594 84.285156 L 120.308594 83.785156 C 120.308594 83.71875 120.363281 83.664062 120.429688 83.664062 Z M 120.429688 83.664062 "/>
<path style=" stroke:none;fill-rule:nonzero;fill:rgb(24.705882%,23.921569%,33.72549%);fill-opacity:1;" d="M 122.898438 83.664062 L 123.890625 83.664062 C 123.957031 83.664062 124.011719 83.71875 124.011719 83.785156 L 124.011719 84.285156 C 124.011719 84.351562 123.957031 84.40625 123.890625 84.40625 L 122.898438 84.40625 C 122.832031 84.40625 122.777344 84.351562 122.777344 84.285156 L 122.777344 83.785156 C 122.777344 83.71875 122.832031 83.664062 122.898438 83.664062 Z M 122.898438 83.664062 "/>
<path style=" stroke:none;fill-rule:nonzero;fill:rgb(24.705882%,23.921569%,33.72549%);fill-opacity:1;" d="M 125.367188 83.664062 L 126.363281 83.664062 C 126.429688 83.664062 126.480469 83.71875 126.480469 83.785156 L 126.480469 84.285156 C 126.480469 84.351562 126.429688 84.40625 126.363281 84.40625 L 125.367188 84.40625 C 125.300781 84.40625 125.246094 84.351562 125.246094 84.285156 L 125.246094 83.785156 C 125.246094 83.71875 125.300781 83.664062 125.367188 83.664062 Z M 125.367188 83.664062 "/>
<path style=" stroke:none;fill-rule:nonzero;fill:rgb(24.705882%,23.921569%,33.72549%);fill-opacity:1;" d="M 127.835938 83.664062 L 128.832031 83.664062 C 128.898438 83.664062 128.949219 83.71875 128.949219 83.785156 L 128.949219 84.285156 C 128.949219 84.351562 128.898438 84.40625 128.832031 84.40625 L 127.835938 84.40625 C 127.769531 84.40625 127.714844 84.351562 127.714844 84.285156 L 127.714844 83.785156 C 127.714844 83.71875 127.769531 83.664062 127.835938 83.664062 Z M 127.835938 83.664062 "/>
<path style=" stroke:none;fill-rule:nonzero;fill:rgb(24.705882%,23.921569%,33.72549%);fill-opacity:1;" d="M 130.304688 83.664062 L 131.300781 83.664062 C 131.367188 83.664062 131.421875 83.71875 131.421875 83.785156 L 131.421875 84.285156 C 131.421875 84.351562 131.367188 84.40625 131.300781 84.40625 L 130.304688 84.40625 C 130.238281 84.40625 130.1875 84.351562 130.1875 84.285156 L 130.1875 83.785156 C 130.1875 83.71875 130.238281 83.664062 130.304688 83.664062 Z M 130.304688 83.664062 "/>
<path style=" stroke:none;fill-rule:nonzero;fill:rgb(24.705882%,23.921569%,33.72549%);fill-opacity:1;" d="M 132.773438 83.664062 L 133.769531 83.664062 C 133.835938 83.664062 133.890625 83.71875 133.890625 83.785156 L 133.890625 84.285156 C 133.890625 84.351562 133.835938 84.40625 133.769531 84.40625 L 132.773438 84.40625 C 132.707031 84.40625 132.65625 84.351562 132.65625 84.285156 L 132.65625 83.785156 C 132.65625 83.71875 132.707031 83.664062 132.773438 83.664062 Z M 132.773438 83.664062 "/>
<path style=" stroke:none;fill-rule:nonzero;fill:rgb(24.705882%,23.921569%,33.72549%);fill-opacity:1;" d="M 135.246094 83.664062 L 136.238281 83.664062 C 136.304688 83.664062 136.359375 83.71875 136.359375 83.785156 L 136.359375 84.285156 C 136.359375 84.351562 136.304688 84.40625 136.238281 84.40625 L 135.246094 84.40625 C 135.179688 84.40625 135.125 84.351562 135.125 84.285156 L 135.125 83.785156 C 135.125 83.71875 135.179688 83.664062 135.246094 83.664062 Z M 135.246094 83.664062 "/>
<path style=" stroke:none;fill-rule:nonzero;fill:rgb(24.705882%,23.921569%,33.72549%);fill-opacity:1;" d="M 137.714844 83.664062 L 138.707031 83.664062 C 138.773438 83.664062 138.828125 83.71875 138.828125 83.785156 L 138.828125 84.285156 C 138.828125 84.351562 138.773438 84.40625 138.707031 84.40625 L 137.714844 84.40625 C 137.648438 84.40625 137.59375 84.351562 137.59375 84.285156 L 137.59375 83.785156 C 137.59375 83.71875 137.648438 83.664062 137.714844 83.664062 Z M 137.714844 83.664062 "/>
<path style=" stroke:none;fill-rule:nonzero;fill:rgb(24.705882%,23.921569%,33.72549%);fill-opacity:1;" d="M 140.183594 83.664062 L 141.175781 83.664062 C 141.242188 83.664062 141.296875 83.71875 141.296875 83.785156 L 141.296875 84.285156 C 141.296875 84.351562 141.242188 84.40625 141.175781 84.40625 L 140.183594 84.40625 C 140.117188 84.40625 140.0625 84.351562 140.0625 84.285156 L 140.0625 83.785156 C 140.0625 83.71875 140.117188 83.664062 140.183594 83.664062 Z M 140.183594 83.664062 "/>
<path style=" stroke:none;fill-rule:nonzero;fill:rgb(24.705882%,23.921569%,33.72549%);fill-opacity:1;" d="M 142.652344 83.664062 L 143.644531 83.664062 C 143.710938 83.664062 143.765625 83.71875 143.765625 83.785156 L 143.765625 84.285156 C 143.765625 84.351562 143.710938 84.40625 143.644531 84.40625 L 142.652344 84.40625 C 142.585938 84.40625 142.53125 84.351562 142.53125 84.285156 L 142.53125 83.785156 C 142.53125 83.71875 142.585938 83.664062 142.652344 83.664062 Z M 142.652344 83.664062 "/>
<path style=" stroke:none;fill-rule:nonzero;fill:rgb(24.705882%,23.921569%,33.72549%);fill-opacity:1;" d="M 145.121094 83.664062 L 146.113281 83.664062 C 146.179688 83.664062 146.234375 83.71875 146.234375 83.785156 L 146.234375 84.285156 C 146.234375 84.351562 146.179688 84.40625 146.113281 84.40625 L 145.121094 84.40625 C 145.054688 84.40625 145 84.351562 145 84.285156 L 145 83.785156 C 145 83.71875 145.054688 83.664062 145.121094 83.664062 Z M 145.121094 83.664062 "/>
<path style=" stroke:none;fill-rule:nonzero;fill:rgb(24.705882%,23.921569%,33.72549%);fill-opacity:1;" d="M 119.9375 85.148438 L 129.570312 85.148438 C 129.636719 85.148438 129.691406 85.203125 129.691406 85.269531 L 129.691406 85.769531 C 129.691406 85.835938 129.636719 85.890625 129.570312 85.890625 L 119.9375 85.890625 C 119.871094 85.890625 119.816406 85.835938 119.816406 85.769531 L 119.816406 85.269531 C 119.816406 85.203125 119.871094 85.148438 119.9375 85.148438 Z M 119.9375 85.148438 "/>
<path style=" stroke:none;fill-rule:nonzero;fill:rgb(94.117647%,94.117647%,94.117647%);fill-opacity:1;" d="M 155.652344 142.714844 L 153.75 139.65625 L 153.371094 141.40625 C 153.304688 141.710938 153.238281 142.023438 153.175781 142.332031 C 152.632812 141.871094 152.058594 141.441406 151.496094 141.03125 C 149.769531 139.777344 148.039062 138.519531 146.3125 137.261719 L 146.855469 140.398438 C 147.1875 142.332031 147.535156 144.304688 148.359375 146.070312 C 148.453125 146.269531 148.550781 146.46875 148.65625 146.660156 L 156.691406 146.660156 C 156.757812 146.480469 156.800781 146.296875 156.824219 146.105469 C 156.828125 146.09375 156.828125 146.082031 156.828125 146.070312 C 156.953125 144.871094 156.292969 143.742188 155.652344 142.714844 Z M 155.652344 142.714844 "/>
<path style=" stroke:none;fill-rule:nonzero;fill:rgb(94.117647%,94.117647%,94.117647%);fill-opacity:1;" d="M 47.011719 142.714844 L 45.109375 139.65625 L 44.726562 141.40625 C 44.660156 141.710938 44.59375 142.023438 44.53125 142.332031 C 43.992188 141.871094 43.417969 141.441406 42.855469 141.03125 C 41.125 139.777344 39.398438 138.519531 37.671875 137.261719 L 38.210938 140.398438 C 38.546875 142.332031 38.894531 144.304688 39.71875 146.070312 C 39.808594 146.269531 39.910156 146.46875 40.015625 146.660156 L 48.050781 146.660156 C 48.113281 146.480469 48.160156 146.296875 48.183594 146.105469 C 48.183594 146.09375 48.183594 146.082031 48.183594 146.070312 C 48.3125 144.871094 47.648438 143.742188 47.011719 142.714844 Z M 47.011719 142.714844 "/>
<path style=" stroke:none;fill-rule:nonzero;fill:rgb(79.215686%,79.215686%,79.215686%);fill-opacity:1;" d="M 199.738281 146.996094 L 131.652344 147.070312 C 131.488281 147.070312 131.359375 146.9375 131.359375 146.777344 C 131.359375 146.613281 131.488281 146.484375 131.652344 146.480469 L 199.738281 146.40625 C 199.902344 146.40625 200.03125 146.539062 200.03125 146.699219 C 200.03125 146.863281 199.902344 146.992188 199.738281 146.996094 Z M 199.738281 146.996094 "/>
<path style=" stroke:none;fill-rule:nonzero;fill:rgb(79.215686%,79.215686%,79.215686%);fill-opacity:1;" d="M 68.378906 146.996094 L 0.292969 147.070312 C 0.132812 147.070312 0 146.9375 0 146.777344 C 0 146.613281 0.132812 146.484375 0.292969 146.480469 L 68.378906 146.40625 C 68.542969 146.40625 68.671875 146.539062 68.671875 146.699219 C 68.671875 146.863281 68.542969 146.992188 68.378906 146.996094 Z M 68.378906 146.996094 "/>
<path style=" stroke:none;fill-rule:nonzero;fill:rgb(18.431373%,18.039216%,25.490196%);fill-opacity:1;" d="M 44.042969 10.476562 C 42.863281 10.828125 41.765625 9.839844 40.945312 8.90625 L 41.238281 9.253906 C 39.308594 10.613281 38.15625 12.824219 37.40625 15.066406 C 36.660156 17.304688 36.242188 19.648438 35.398438 21.855469 C 34.554688 24.058594 33.191406 26.191406 31.105469 27.292969 C 28.308594 28.765625 24.882812 28.09375 21.910156 27.03125 C 21.871094 27.015625 21.835938 27.003906 21.796875 26.988281 C 23 24.738281 23.738281 22.269531 23.964844 19.726562 C 22.742188 22.117188 20.976562 24.1875 18.8125 25.773438 C 16.871094 24.886719 15.003906 23.847656 13.226562 22.664062 C 12.078125 21.894531 10.871094 20.902344 10.734375 19.527344 C 10.601562 18.160156 11.621094 16.914062 12.824219 16.253906 C 14.023438 15.597656 15.40625 15.375 16.722656 14.980469 C 18.03125 14.585938 19.371094 13.941406 20.058594 12.757812 C 21.648438 10.03125 18.976562 6.183594 20.679688 3.523438 C 21.519531 2.21875 23.148438 1.695312 24.660156 1.332031 C 26.964844 0.777344 29.308594 0.382812 31.667969 0.148438 C 33.738281 -0.0585938 35.878906 -0.136719 37.851562 0.53125 C 39.820312 1.195312 41.609375 2.746094 42.03125 4.785156 C 43.179688 5.390625 44.398438 6.0625 45.015625 7.210938 C 45.632812 8.355469 45.289062 10.105469 44.042969 10.476562 Z M 44.042969 10.476562 "/>
<path style=" stroke:none;fill-rule:nonzero;fill:rgb(18.431373%,18.039216%,25.490196%);fill-opacity:1;" d="M 42.285156 10.015625 C 41.15625 11.429688 40.542969 12.960938 40.542969 13.875 C 38.199219 18.160156 41.550781 21.839844 45.832031 24.183594 C 47.539062 25.125 49.511719 25.46875 51.4375 25.160156 L 51.617188 24.394531 L 51.859375 25.085938 C 51.859375 25.085938 54.648438 34.300781 55.566406 34.839844 C 55.21875 33.199219 54.816406 25.609375 54.625 24.007812 C 54.355469 21.828125 55.292969 18.585938 55.96875 16.617188 C 56.386719 15.398438 56.601562 14.125 56.605469 12.839844 L 56.605469 12.78125 L 57.265625 14.898438 L 59.660156 13.875 C 59.214844 11.316406 59.660156 8.410156 54.3125 8.660156 C 51.421875 6.671875 48.875 6.367188 46.785156 6.933594 C 46.511719 6.515625 44.957031 7.296875 44.507812 7.078125 "/>
<path style=" stroke:none;fill-rule:nonzero;fill:rgb(19.215686%,54.901961%,28.627451%);fill-opacity:1;" d="M 161.480469 20.429688 L 161.480469 65.546875 C 161.480469 66.203125 160.949219 66.734375 160.292969 66.734375 L 136.535156 66.734375 C 133.90625 64.296875 131.75 61.390625 130.175781 58.171875 C 130.070312 57.964844 129.972656 57.753906 129.878906 57.542969 C 128.445312 54.421875 127.574219 51.074219 127.3125 47.652344 C 127.292969 47.441406 127.28125 47.230469 127.269531 47.019531 C 127.238281 46.476562 127.222656 45.925781 127.222656 45.371094 C 127.21875 41.691406 127.914062 38.042969 129.269531 34.621094 C 129.351562 34.410156 129.4375 34.199219 129.527344 33.988281 C 132.257812 27.570312 137.191406 22.335938 143.441406 19.238281 L 160.292969 19.238281 C 160.949219 19.238281 161.480469 19.769531 161.480469 20.429688 Z M 161.480469 20.429688 "/>
<path style=" stroke:none;fill-rule:nonzero;fill:rgb(79.215686%,79.215686%,79.215686%);fill-opacity:1;" d="M 156.90625 25.453125 L 93.863281 25.453125 C 93.726562 25.449219 93.621094 25.339844 93.621094 25.203125 C 93.621094 25.066406 93.726562 24.953125 93.863281 24.953125 L 156.90625 24.953125 C 157.042969 24.953125 157.152344 25.066406 157.152344 25.203125 C 157.152344 25.339844 157.042969 25.449219 156.90625 25.453125 Z M 156.90625 25.453125 "/>
<path style=" stroke:none;fill-rule:nonzero;fill:rgb(24.705882%,23.921569%,33.72549%);fill-opacity:1;" d="M 99.625 22.167969 C 99.625 21.339844 98.96875 20.664062 98.15625 20.664062 C 97.34375 20.664062 96.6875 21.339844 96.6875 22.167969 C 96.6875 23 97.34375 23.671875 98.15625 23.671875 C 98.96875 23.671875 99.625 23 99.625 22.167969 Z M 99.625 22.167969 "/>
<path style=" stroke:none;fill-rule:nonzero;fill:rgb(24.705882%,23.921569%,33.72549%);fill-opacity:1;" d="M 104.699219 22.167969 C 104.699219 21.339844 104.042969 20.664062 103.230469 20.664062 C 102.421875 20.664062 101.761719 21.339844 101.761719 22.167969 C 101.761719 23 102.421875 23.671875 103.230469 23.671875 C 104.042969 23.671875 104.699219 23 104.699219 22.167969 Z M 104.699219 22.167969 "/>
<path style=" stroke:none;fill-rule:nonzero;fill:rgb(24.705882%,23.921569%,33.72549%);fill-opacity:1;" d="M 109.777344 22.167969 C 109.777344 21.339844 109.117188 20.664062 108.308594 20.664062 C 107.496094 20.664062 106.839844 21.339844 106.839844 22.167969 C 106.839844 23 107.496094 23.671875 108.308594 23.671875 C 109.117188 23.671875 109.777344 23 109.777344 22.167969 Z M 109.777344 22.167969 "/>
<path style=" stroke:none;fill-rule:nonzero;fill:rgb(24.705882%,23.921569%,33.72549%);fill-opacity:1;" d="M 153.851562 21.039062 L 150.246094 21.039062 C 150.097656 21.039062 149.976562 21.164062 149.976562 21.3125 C 149.976562 21.460938 150.097656 21.582031 150.246094 21.585938 L 153.851562 21.585938 C 154 21.582031 154.121094 21.460938 154.121094 21.3125 C 154.121094 21.164062 154 21.039062 153.851562 21.039062 Z M 153.851562 21.039062 "/>
<path style=" stroke:none;fill-rule:nonzero;fill:rgb(24.705882%,23.921569%,33.72549%);fill-opacity:1;" d="M 153.851562 22.0625 L 150.246094 22.0625 C 150.097656 22.066406 149.976562 22.1875 149.976562 22.335938 C 149.976562 22.484375 150.097656 22.605469 150.246094 22.609375 L 153.851562 22.609375 C 154 22.605469 154.121094 22.484375 154.121094 22.335938 C 154.121094 22.1875 154 22.066406 153.851562 22.0625 Z M 153.851562 22.0625 "/>
<path style=" stroke:none;fill-rule:nonzero;fill:rgb(24.705882%,23.921569%,33.72549%);fill-opacity:1;" d="M 153.851562 23.085938 L 150.246094 23.085938 C 150.097656 23.089844 149.976562 23.210938 149.976562 23.359375 C 149.976562 23.507812 150.097656 23.628906 150.246094 23.632812 L 153.851562 23.632812 C 154 23.628906 154.121094 23.507812 154.121094 23.359375 C 154.121094 23.210938 154 23.089844 153.851562 23.085938 Z M 153.851562 23.085938 "/>
<path style=" stroke:none;fill-rule:nonzero;fill:rgb(19.215686%,54.901961%,28.627451%);fill-opacity:1;" d="M 104.820312 40.109375 L 112.699219 40.109375 C 113.289062 40.109375 113.769531 40.589844 113.769531 41.179688 C 113.769531 41.773438 113.289062 42.253906 112.699219 42.253906 L 104.820312 42.253906 C 104.230469 42.253906 103.75 41.773438 103.75 41.179688 C 103.75 40.589844 104.230469 40.109375 104.820312 40.109375 Z M 104.820312 40.109375 "/>
<path style=" stroke:none;fill-rule:nonzero;fill:rgb(90.196078%,90.196078%,90.196078%);fill-opacity:1;" d="M 99.730469 44.394531 L 117.789062 44.394531 C 118.378906 44.394531 118.859375 44.875 118.859375 45.46875 C 118.859375 46.058594 118.378906 46.539062 117.789062 46.539062 L 99.730469 46.539062 C 99.140625 46.539062 98.660156 46.058594 98.660156 45.46875 C 98.660156 44.875 99.140625 44.394531 99.730469 44.394531 Z M 99.730469 44.394531 "/>
<path style=" stroke:none;fill-rule:nonzero;fill:rgb(90.196078%,90.196078%,90.196078%);fill-opacity:1;" d="M 99.730469 48.683594 L 117.789062 48.683594 C 118.378906 48.683594 118.859375 49.164062 118.859375 49.757812 C 118.859375 50.347656 118.378906 50.828125 117.789062 50.828125 L 99.730469 50.828125 C 99.140625 50.828125 98.660156 50.347656 98.660156 49.757812 C 98.660156 49.164062 99.140625 48.683594 99.730469 48.683594 Z M 99.730469 48.683594 "/>
<path style=" stroke:none;fill-rule:nonzero;fill:rgb(19.215686%,54.901961%,28.627451%);fill-opacity:1;" d="M 100.308594 64.148438 C 100.3125 65.03125 100.152344 65.90625 99.84375 66.734375 L 92.917969 66.734375 C 92.261719 66.734375 91.734375 66.203125 91.730469 65.546875 L 91.730469 56.828125 C 92.117188 56.765625 92.507812 56.734375 92.902344 56.734375 C 96.992188 56.734375 100.308594 60.054688 100.308594 64.148438 Z M 100.308594 64.148438 "/>
<use xlink:href="#surface5" mask="url(#mask0)"/>
<path style=" stroke:none;fill-rule:nonzero;fill:rgb(18.431373%,18.039216%,25.490196%);fill-opacity:1;" d="M 153.011719 62.054688 C 152.734375 62.066406 152.480469 61.90625 152.375 61.648438 C 152.265625 61.394531 152.332031 61.097656 152.535156 60.910156 L 152.578125 60.730469 C 152.574219 60.714844 152.566406 60.699219 152.5625 60.6875 C 152.285156 60.027344 151.636719 59.601562 150.921875 59.605469 C 150.210938 59.605469 149.566406 60.039062 149.292969 60.699219 C 148.757812 61.988281 148.078125 63.277344 147.910156 64.640625 C 147.835938 65.242188 147.867188 65.851562 148.003906 66.441406 C 146.746094 63.703125 146.09375 60.722656 146.089844 57.710938 C 146.089844 56.953125 146.132812 56.195312 146.21875 55.445312 C 146.285156 54.828125 146.382812 54.214844 146.507812 53.609375 C 147.179688 50.3125 148.625 47.222656 150.722656 44.59375 C 151.738281 44.039062 152.558594 43.1875 153.074219 42.152344 C 153.261719 41.777344 153.394531 41.382812 153.46875 40.96875 C 153.351562 40.984375 153.238281 40.996094 153.121094 41.003906 C 153.085938 41.003906 153.050781 41.007812 153.011719 41.007812 L 153 41.007812 C 152.742188 41.019531 152.503906 40.878906 152.386719 40.648438 C 152.269531 40.417969 152.300781 40.144531 152.460938 39.941406 C 152.511719 39.882812 152.5625 39.820312 152.609375 39.761719 C 152.6875 39.667969 152.761719 39.574219 152.839844 39.480469 C 152.847656 39.472656 152.855469 39.460938 152.863281 39.453125 C 152.949219 39.34375 153.035156 39.238281 153.121094 39.132812 C 152.964844 38.886719 152.753906 38.683594 152.503906 38.535156 C 151.636719 38.027344 150.441406 38.378906 149.816406 39.160156 C 149.191406 39.945312 149.070312 41.042969 149.289062 42.023438 C 149.503906 42.855469 149.859375 43.644531 150.335938 44.359375 C 150.289062 44.421875 150.242188 44.480469 150.195312 44.539062 C 149.335938 45.644531 148.589844 46.828125 147.960938 48.078125 C 148.113281 46.679688 147.929688 45.261719 147.429688 43.945312 C 146.921875 42.71875 145.96875 41.683594 145.128906 40.625 C 144.121094 39.351562 142.054688 39.90625 141.878906 41.519531 C 141.875 41.535156 141.875 41.550781 141.875 41.566406 C 141.996094 41.636719 142.121094 41.714844 142.238281 41.792969 C 142.546875 41.996094 142.695312 42.371094 142.617188 42.730469 C 142.535156 43.089844 142.242188 43.367188 141.878906 43.421875 L 141.859375 43.425781 C 141.90625 43.875 141.984375 44.320312 142.09375 44.757812 C 142.75 47.226562 144.40625 49.308594 146.660156 50.507812 C 146.734375 50.542969 146.804688 50.582031 146.878906 50.617188 C 146.246094 52.402344 145.851562 54.265625 145.703125 56.152344 C 145.617188 57.265625 145.621094 58.386719 145.71875 59.5 L 145.710938 59.460938 C 145.472656 58.222656 144.8125 57.105469 143.84375 56.296875 C 142.40625 55.117188 140.375 54.679688 138.824219 53.730469 C 138.484375 53.515625 138.054688 53.511719 137.714844 53.726562 C 137.378906 53.941406 137.195312 54.335938 137.25 54.730469 C 137.25 54.746094 137.253906 54.757812 137.253906 54.773438 C 137.488281 54.867188 137.710938 54.976562 137.929688 55.097656 C 138.054688 55.167969 138.175781 55.242188 138.296875 55.320312 C 138.601562 55.527344 138.75 55.898438 138.671875 56.257812 C 138.59375 56.621094 138.300781 56.894531 137.933594 56.949219 L 137.917969 56.953125 C 137.902344 56.957031 137.890625 56.957031 137.878906 56.960938 C 138.273438 57.902344 138.828125 58.773438 139.519531 59.527344 C 141.242188 61.378906 143.648438 62.433594 146.171875 62.449219 L 146.175781 62.449219 C 146.515625 63.925781 147.007812 65.359375 147.640625 66.734375 L 152.882812 66.734375 C 152.902344 66.675781 152.917969 66.617188 152.933594 66.558594 C 152.449219 66.589844 151.960938 66.558594 151.484375 66.472656 C 151.875 65.992188 152.261719 65.511719 152.652344 65.035156 C 152.660156 65.027344 152.667969 65.015625 152.675781 65.007812 C 152.871094 64.761719 153.070312 64.519531 153.269531 64.277344 C 153.277344 63.527344 153.191406 62.78125 153.011719 62.054688 Z M 147.011719 50.242188 L 147.015625 50.238281 L 147.011719 50.246094 Z M 145.851562 60.710938 L 145.808594 60.609375 C 145.808594 60.539062 145.808594 60.464844 145.808594 60.390625 C 145.808594 60.367188 145.804688 60.347656 145.804688 60.328125 C 145.820312 60.457031 145.835938 60.585938 145.855469 60.714844 Z M 145.851562 60.710938 "/>
</g>
</svg>
